<?xml version="1.0" encoding="UTF-8" standalone="no"?>
<!-- Created with Inkscape (http://www.inkscape.org/) -->
<svg
   xmlns:dc="http://purl.org/dc/elements/1.1/"
   xmlns:cc="http://web.resource.org/cc/"
   xmlns:rdf="http://www.w3.org/1999/02/22-rdf-syntax-ns#"
   xmlns:svg="http://www.w3.org/2000/svg"
   xmlns="http://www.w3.org/2000/svg"
   xmlns:sodipodi="http://inkscape.sourceforge.net/DTD/sodipodi-0.dtd"
   xmlns:inkscape="http://www.inkscape.org/namespaces/inkscape"
   width="740"
   height="1020"
   id="svg1334"
   sodipodi:version="0.32"
   inkscape:version="0.43+devel"
   sodipodi:docbase="C:\Documents and Settings\sfalco\Desktop"
   sodipodi:docname="gerusalemme3.svg"
   version="1.0">
  <defs
     id="defs1336" />
  <sodipodi:namedview
     id="base"
     pagecolor="#ffffff"
     bordercolor="#666666"
     borderopacity="1.0"
     inkscape:pageopacity="0.0"
     inkscape:pageshadow="2"
     inkscape:zoom="0.55684252"
     inkscape:cx="506.91201"
     inkscape:cy="540.98788"
     inkscape:document-units="px"
     inkscape:current-layer="layer1"
     inkscape:window-width="1280"
     inkscape:window-height="753"
     inkscape:window-x="-4"
     inkscape:window-y="-4"
     showguides="true"
     inkscape:guide-bbox="true"
     width="740px"
     height="1020px">
    <sodipodi:guide
       orientation="horizontal"
       position="2.5397011"
       id="guide17359" />
    <sodipodi:guide
       orientation="vertical"
       position="-5.0794023"
       id="guide17361" />
    <sodipodi:guide
       orientation="horizontal"
       position="1020.9599"
       id="guide17363" />
    <sodipodi:guide
       orientation="vertical"
       position="741.59273"
       id="guide17365" />
  </sodipodi:namedview>
  <metadata
     id="metadata1339">
    <rdf:RDF>
      <cc:Work
         rdf:about="">
        <dc:format>image/svg+xml</dc:format>
        <dc:type
           rdf:resource="http://purl.org/dc/dcmitype/StillImage" />
      </cc:Work>
    </rdf:RDF>
  </metadata>
  <g
     inkscape:label="Livello 1"
     inkscape:groupmode="layer"
     id="layer1">
    <g
       id="g9292">
      <g
         id="g13817" />
      <g
         transform="translate(-12.69813,58.19104)"
         id="g15573">
        <rect
           style="opacity:1;fill:#ffccaa;fill-opacity:1;fill-rule:evenodd;stroke:#ffccaa;stroke-width:2;stroke-linecap:butt;stroke-linejoin:miter;stroke-miterlimit:4;stroke-dasharray:none;stroke-dashoffset:0;stroke-opacity:1"
           id="rect14696"
           width="870.81909"
           height="1344.9208"
           x="-44.814354"
           y="-179.50233" />
        <path
           style="fill:#ffa468;fill-opacity:1;fill-rule:evenodd;stroke:#d45500;stroke-width:1px;stroke-linecap:butt;stroke-linejoin:miter;stroke-opacity:1"
           d="M -19.754239,434.59326 L 25.141759,434.59326 L 61.058557,447.16414 L 89.791995,497.44765 L 91.587835,562.09789 L 113.13791,653.68572 L 105.95455,761.43612 L 118.52543,800.9446 L 141.87135,851.22811 L 184.97151,885.34907 L 233.45919,923.06171 L 278.35518,960.77435 L 335.82206,993.09947 L 398.67646,993.09947 L 420.22654,1011.0579 L 423.81822,1036.1996 L 407.65566,1054.158 L 404.06398,1088.279 L 718.33596,1151.1334 L 745.27356,1100.8499 L 686.01084,1036.1996 L 655.48156,962.57019 L 657.2774,912.28667 L 626.74813,858.41147 L 626.74813,817.10716 L 644.70652,786.57788 L 677.03164,756.0486 L 714.74428,691.39836 L 721.92764,603.40221 L 712.94844,527.97693 L 723.72348,461.53085 L 741.68188,416.63486 L 779.39452,396.88062 L 818.903,149.05471 L 795.55708,-71.833596 L 774.007,-150.85055 L 626.74813,-127.50463 L 639.31901,-48.487677 L 671.64412,5.3875197 L 678.82748,57.466877 L 673.43996,102.36287 L 637.52317,129.30047 L 614.17725,174.19647 L 612.38141,242.43839 L 612.38141,296.31358 L 603.40221,353.78046 L 589.03549,387.90142 L 490.26429,395.08478 L 468.71421,283.7427 L 420.22654,111.34207 L 398.67646,53.875197 L 362.75966,12.570879 L 344.80126,-48.487677 L 364.5555,-138.27967 L 298.10942,-174.19647 L 231.66335,-154.44223 L 231.66335,-93.383675 L 188.56319,26.937599 L 188.56319,98.771195 L 195.74655,143.66719 L 199.33823,202.92991 L 156.23807,278.35518 L 102.36287,269.37599 L 52.079357,199.33823 L 34.120958,181.37983 L -8.9791995,167.01311 L -35.916798,228.07167 L -43.100158,405.85982 L -19.754239,434.59326 z "
           id="path13821" />
        <path
           id="path12067"
           d="M -3.5916798,378.92222 L 52.079357,398.67646 L 116.72959,459.73501 L 147.25887,592.62717 L 138.27967,684.215 L 127.50463,763.23196 L 159.82975,829.67803 L 197.54239,865.59483 L 235.25503,883.55323 L 287.33438,903.30747 L 325.04702,937.42843 L 382.5139,949.99931 L 432.79742,966.16187 L 450.75582,985.91611 L 472.30589,1030.8121 L 484.87677,1081.0956 L 662.66492,1111.6249 L 637.52317,1011.0579 L 632.13565,932.04091 L 606.99389,854.81979 L 612.38141,793.76124 L 650.09404,759.64028 L 686.01084,702.1734 L 698.58172,628.54397 L 689.60252,536.95613 L 703.96924,445.3683 L 725.51932,389.69726 L 768.61948,364.5555 L 808.12796,337.6179 L 806.33212,208.31743 L 765.0278,190.35903 L 747.0694,140.07551 L 720.1318,125.70879 L 673.43996,152.64639 L 644.70652,188.56319 L 651.88988,246.03007 L 637.52317,310.6803 L 612.38141,355.5763 L 599.81053,400.4723 L 601.60637,465.12253 L 592.62717,495.65181 L 565.68957,527.97693 L 569.28125,608.78973 L 535.16029,666.2566 L 526.18109,687.80668 L 515.40605,784.78204 L 477.69341,802.74044 L 443.57246,752.45692 L 373.5347,788.37372 L 280.15102,800.9446 L 240.64255,741.68188 L 222.68415,693.1942 L 213.70495,630.33981 L 201.13407,583.64797 L 213.70495,524.38525 L 206.52159,465.12253 L 79.016956,307.08862 L -16.162559,251.41759 L -19.754239,375.33054 L -3.5916798,378.92222 z "
           style="fill:#ff8b3f;fill-opacity:1;fill-rule:evenodd;stroke:#d45500;stroke-width:1px;stroke-linecap:butt;stroke-linejoin:miter;stroke-opacity:1" />
        <path
           id="path12942"
           d="M 244.23423,122.11711 L 244.23423,43.100158 L 263.98847,-19.754239 L 272.96767,-80.812796 L 274.76351,-129.30047 L 323.25118,-141.87135 L 314.27198,-75.425276 L 319.6595,17.958399 L 366.35134,86.200315 L 244.23423,122.11711 z "
           style="fill:#ff8b3f;fill-opacity:1;fill-rule:evenodd;stroke:#d45500;stroke-width:1px;stroke-linecap:butt;stroke-linejoin:miter;stroke-opacity:1" />
        <path
           style="fill:#ff751a;fill-opacity:1;fill-rule:evenodd;stroke:#d45500;stroke-width:1px;stroke-linecap:butt;stroke-linejoin:miter;stroke-opacity:1"
           d="M 817.78377,314.579 L 733.97363,362.83332 L 700.95752,398.38914 L 684.44946,480.92942 L 674.29065,529.18375 L 681.90976,583.78732 L 675.5605,665.05776 L 652.70319,713.31208 L 622.22678,766.6458 L 594.29007,797.12222 L 589.21067,842.83684 L 590.48052,870.77355 L 610.79813,921.56757 L 623.49663,969.8219 L 624.76648,1028.235 L 640.00469,1086.6481 L 505.40053,1067.6004 L 486.35277,1015.5365 L 458.41606,957.12339 L 380.95517,907.59922 L 359.36771,919.02787 L 341.5898,919.02787 L 325.08175,898.71026 L 255.23997,875.85295 L 229.84295,864.4243 L 184.12833,837.75744 L 156.19162,797.12222 L 144.76297,769.1855 L 154.92177,677.75626 L 181.58863,633.31149 L 205.71579,637.12105 L 219.68415,731.08999 L 255.23997,793.31267 L 302.22444,837.75744 L 363.17726,822.51923 L 398.73308,802.20162 L 444.4477,819.97953 L 457.14621,855.53534 L 487.62262,887.28161 L 515.55933,879.6625 L 520.63873,811.09057 L 529.52769,717.12163 L 554.9247,648.5497 L 584.13126,606.64463 L 585.40111,577.43807 L 584.13126,543.1521 L 608.25842,493.62793 L 617.14738,402.19869 L 629.84588,357.75392 L 656.51275,320.92825 L 675.5605,266.32468 L 686.98916,215.53065 L 714.92587,202.83215 L 740.32288,215.53065 L 741.59273,244.73722 L 768.2596,226.95931 L 822.86317,253.62617 L 817.78377,314.579 z "
           id="path11192" />
        <path
           style="fill:#ff6600;fill-opacity:1;fill-rule:evenodd;stroke:#d45500;stroke-width:1px;stroke-linecap:butt;stroke-linejoin:miter;stroke-opacity:1"
           d="M 806.35511,304.4202 L 733.97363,353.94437 L 690.79871,385.69063 L 683.17961,436.48465 L 661.59215,496.16763 L 674.29065,597.75568 L 660.3223,680.29596 L 617.14738,753.9473 L 580.32171,792.04282 L 580.32171,813.63027 L 581.59156,868.23385 L 613.33783,958.39324 L 617.14738,1025.6953 L 637.46499,1139.9819 L 515.55933,1118.3944 L 520.63873,1048.5526 L 481.27337,963.47264 L 375.87577,893.63086 L 354.28831,910.13892 L 332.70085,893.63086 L 245.08116,864.4243 L 179.04893,823.78908 L 154.92177,780.61416 L 158.73132,701.88342 L 173.96953,679.02611 L 191.74744,672.67686 L 224.76355,761.5664 L 264.12892,811.09057 L 304.76414,850.45594 L 382.22502,840.29714 L 402.54263,831.40818 L 433.01905,849.18609 L 463.49546,899.98011 L 493.97187,908.86907 L 529.52769,931.72638 L 539.68649,917.75802 L 524.44829,833.94788 L 525.71814,807.28102 L 534.60709,720.93118 L 562.5438,659.97836 L 584.13126,630.77179 L 603.17902,586.32702 L 590.48052,574.89837 L 600.63932,520.29479 L 618.41723,494.89778 L 620.95693,412.35749 L 634.92529,361.56347 L 662.862,333.62676 L 684.44946,281.56288 L 692.06856,233.30856 L 728.89423,229.49901 L 725.08468,285.37244 L 758.10079,240.92767 L 810.16467,272.67393 L 806.35511,304.4202 z "
           id="path10317" />
        <path
           style="fill:#d45500;fill-opacity:1;fill-rule:evenodd;stroke:#d45500;stroke-width:1px;stroke-linecap:butt;stroke-linejoin:miter;stroke-opacity:1"
           d="M 760.64049,268.86438 L 712.38617,317.1187 L 712.38617,295.53124 L 703.49722,275.21363 L 673.0208,350.13482 L 645.08409,375.53183 L 634.92529,413.62734 L 633.65544,451.72286 L 628.57603,515.21539 L 603.17902,544.42195 L 608.25842,574.89837 L 626.03633,557.12046 L 610.79813,607.91448 L 585.40111,658.7085 L 565.0835,679.02611 L 587.94082,717.12163 L 539.68649,734.89954 L 542.22619,766.6458 L 562.5438,759.0267 L 528.25784,821.24938 L 534.60709,873.31325 L 544.7659,920.29772 L 532.06739,939.34548 L 495.24172,913.94847 L 459.68591,905.05952 L 422.86024,852.99564 L 401.27278,839.02729 L 380.95517,849.18609 L 365.71697,849.18609 L 337.78025,854.26549 L 300.95459,854.26549 L 193.01729,747.59805 L 173.96953,742.51864 L 175.23938,783.15386 L 222.22385,837.75744 L 289.52593,874.5831 L 344.12951,887.28161 L 354.28831,899.98011 L 372.06622,882.20221 L 490.16232,958.39324 L 516.82918,1009.1873 L 528.25784,1053.632 L 529.52769,1150.1407 L 623.49663,1150.1407 L 605.71872,1040.9335 L 595.55992,941.88518 L 571.43276,861.8846 L 565.0835,795.85237 L 610.79813,741.24879 L 636.19514,695.53417 L 652.70319,667.59746 L 665.4017,601.56523 L 660.3223,540.6124 L 653.97305,498.70733 L 670.4811,444.10376 L 661.59215,428.86555 L 669.21125,380.61123 L 716.19572,334.89661 L 746.67214,304.4202 L 800.00586,281.56288 L 760.64049,268.86438 z "
           id="path9442" />
      </g>
      <path
         sodipodi:nodetypes="ccccccccccccccccccccccccccccc"
         id="path8522"
         d="M 569.48984,423.90078 L 558.73463,282.61065 L 523.17881,214.03872 L 516.82956,103.56172 L 407.62241,84.51396 L 63.492904,248.32468 L 63.492904,295.30915 L 16.508433,351.18258 L 101.58842,454.04048 L 118.09648,454.04048 L 157.46185,512.4536 L 157.46185,520.07271 L 210.79557,569.59688 L 273.73833,582.57629 L 261.16746,857.3398 L 281.81961,871.70652 L 315.04265,864.52316 L 315.94057,869.91068 L 337.49065,869.91068 L 393.16169,884.27739 L 405.73257,884.27739 L 410.22217,881.58363 L 448.83273,895.05243 L 476.66824,886.97115 L 494.62664,902.23579 L 506.2996,884.27739 L 510.7892,862.72732 L 507.19752,640.04317 L 569.48984,423.90078 z "
         style="fill:#5599ff;fill-opacity:1;fill-rule:evenodd;stroke:#0007b5;stroke-width:2;stroke-linecap:butt;stroke-linejoin:miter;stroke-opacity:1;stroke-miterlimit:4;stroke-dasharray:none" />
      <path
         sodipodi:nodetypes="ccccccccc"
         id="path9397"
         d="M 558.67152,282.56209 L 439.85353,316.79199 L 409.06286,337.34842 L 314.14473,376.95262 L 227.94442,455.96958 L 220.76106,439.80702 L 156.11082,457.76542 L 163.29418,482.00926 L 145.59878,493.9705"
         style="fill:none;fill-opacity:1;fill-rule:evenodd;stroke:#0007b5;stroke-width:2;stroke-linecap:butt;stroke-linejoin:miter;stroke-opacity:1;stroke-miterlimit:4;stroke-dasharray:none" />
      <path
         sodipodi:nodetypes="ccccccccccccccccccccccccccccccccccccccccccccccccccccccccccccc"
         id="path4998"
         d="M 493.73415,435.46891 L 480.00389,360.07153 L 440.0036,316.89661 L 414.60659,317.53154 L 408.25734,335.30945 L 395.55883,335.94437 L 372.70152,329.59512 L 354.92361,335.94437 L 339.6854,348.64288 L 328.25675,358.80169 L 314.92332,375.94467 L 326.9869,391.8178 L 339.05048,434.99272 L 331.43138,446.42137 L 339.6854,456.58018 L 346.03466,529.59659 L 241.27198,542.29509 L 239.36721,558.16822 L 217.77975,565.1524 L 211.4305,569.59688 L 259.04989,581.02553 L 260.95467,595.62881 L 236.82751,609.59717 L 228.57348,621.02583 L 228.57348,676.26433 L 222.22423,696.58194 L 227.30363,698.48671 L 227.30363,733.4076 L 215.87497,733.4076 L 215.87497,742.93148 L 224.129,742.93148 L 224.129,756.26491 L 228.57348,756.26491 L 229.84333,835.63057 L 261.17584,857.29837 L 279.3675,829.91625 L 290.79616,829.28132 L 321.27257,834.99565 L 323.17735,806.42401 L 386.66988,809.59864 L 388.57465,757.53476 L 405.08271,730.23298 L 419.68599,690.86761 L 444.44808,668.08072 L 501.81583,656.95688 L 495.87702,711.82014 L 467.94031,759.43954 L 472.38479,810.23356 L 492.7024,826.10669 L 497.7818,851.50371 L 510.96448,862.29744 L 527.62329,841.3449 L 522.54389,793.7255 L 513.02001,761.34431 L 512.38508,727.05835 L 530.79792,683.2485 L 561.90925,642.61329 L 589.21104,617.8512 L 589.39701,607.58346 L 569.19164,424.34974 L 493.73415,435.46891 z "
         style="fill:#aaccff;fill-opacity:1;fill-rule:evenodd;stroke:#0007b5;stroke-width:2;stroke-linecap:butt;stroke-linejoin:miter;stroke-opacity:1;stroke-miterlimit:4;stroke-dasharray:none" />
      <path
         id="path4121"
         d="M 446.58793,442.50078 L 482.95368,619.83997 L 589.3572,605.92221 L 569.60296,424.09342 L 446.58793,442.50078 z "
         style="fill:#aaccff;fill-opacity:1;fill-rule:evenodd;stroke:#0007b5;stroke-width:2;stroke-linecap:butt;stroke-linejoin:miter;stroke-opacity:1;stroke-miterlimit:4;stroke-dasharray:none" />
      <path
         sodipodi:nodetypes="ccccccc"
         id="path4996"
         d="M 528.25821,613.96462 L 528.89314,633.72433 L 520.00419,633.72433 L 520.00419,653.40702 L 431.11465,670.55 L 414.60659,561.97777 L 409.52719,561.97777"
         style="fill:none;fill-opacity:0.75;fill-rule:evenodd;stroke:#0007b5;stroke-width:2;stroke-linecap:butt;stroke-linejoin:miter;stroke-opacity:1;stroke-miterlimit:4;stroke-dasharray:none" />
      <path
         id="path5873"
         d="M 466.03554,540.39032 L 382.2254,558.16822 L 383.49525,577.85091 L 306.03436,588.00971 L 306.03436,594.35896"
         style="fill:none;fill-opacity:0.75;fill-rule:evenodd;stroke:#0007b5;stroke-width:2;stroke-linecap:butt;stroke-linejoin:miter;stroke-miterlimit:4;stroke-dasharray:none;stroke-opacity:1" />
      <path
         sodipodi:nodetypes="cc"
         id="path6748"
         d="M 315.26004,533.07272 L 322.2057,585.84194"
         style="fill:none;fill-opacity:0.75;fill-rule:evenodd;stroke:#0007b5;stroke-width:2;stroke-linecap:butt;stroke-linejoin:miter;stroke-opacity:1;stroke-miterlimit:4;stroke-dasharray:none" />
      <path
         id="path6750"
         d="M 295.24063,595.62881 L 295.24063,591.18434 L 264.76422,596.26374 L 266.03407,676.26433 L 228.57348,676.26433"
         style="fill:none;fill-opacity:0.75;fill-rule:evenodd;stroke:#0007b5;stroke-width:2;stroke-linecap:butt;stroke-linejoin:miter;stroke-opacity:1;stroke-miterlimit:4;stroke-dasharray:none" />
      <path
         id="path6752"
         d="M 242.54184,612.13687 L 248.89109,622.9306 L 256.51019,624.20045"
         style="fill:none;fill-opacity:0.75;fill-rule:evenodd;stroke:#0007b5;stroke-width:2;stroke-linecap:butt;stroke-linejoin:miter;stroke-opacity:1;stroke-miterlimit:4;stroke-dasharray:none" />
      <rect
         y="591.18433"
         x="255.87526"
         height="12.381043"
         width="12.698505"
         id="rect7629"
         style="fill:#9ec7f3;fill-opacity:1;fill-rule:evenodd;stroke:#0007b5;stroke-width:2;stroke-linecap:butt;stroke-linejoin:miter;stroke-miterlimit:4;stroke-dasharray:none;stroke-dashoffset:0;stroke-opacity:1" />
      <rect
         y="616.8988"
         x="255.87526"
         height="12.698505"
         width="12.698505"
         id="rect7631"
         style="fill:#9ec7f3;fill-opacity:1;fill-rule:evenodd;stroke:#0007b5;stroke-width:2;stroke-linecap:butt;stroke-linejoin:miter;stroke-miterlimit:4;stroke-dasharray:none;stroke-dashoffset:0;stroke-opacity:1" />
      <rect
         transform="matrix(0.934978,-0.354706,0.354706,0.934978,0,0)"
         y="645.60852"
         x="1.0974574"
         height="14.285821"
         width="15.238209"
         id="rect7633"
         style="fill:#9ec7f3;fill-opacity:1;fill-rule:evenodd;stroke:#0007b5;stroke-width:1.99999979;stroke-linecap:butt;stroke-linejoin:miter;stroke-miterlimit:4;stroke-dasharray:none;stroke-dashoffset:0;stroke-opacity:1" />
      <path
         sodipodi:nodetypes="ccccc"
         id="path7635"
         d="M 446.59095,442.61182 L 438.33692,392.21462 L 484.68647,385.46855 L 493.81352,435.54828 L 446.59095,442.61182 z "
         style="fill:#aaccff;fill-opacity:1;fill-rule:evenodd;stroke:#0007b5;stroke-width:2;stroke-linecap:butt;stroke-linejoin:miter;stroke-opacity:1;stroke-miterlimit:4;stroke-dasharray:none" />
      <rect
         transform="matrix(0.991023,-0.133693,0.133693,0.991023,0,0)"
         y="439.98886"
         x="370.60068"
         height="14.920747"
         width="23.809704"
         id="rect8512"
         style="fill:#aaccff;fill-opacity:1;fill-rule:evenodd;stroke:#0007b5;stroke-width:1.9999996;stroke-linecap:butt;stroke-linejoin:miter;stroke-miterlimit:4;stroke-dasharray:none;stroke-dashoffset:0;stroke-opacity:1" />
      <rect
         transform="matrix(0.991023,-0.133693,0.133693,0.991023,0,0)"
         y="438.43127"
         x="414.85739"
         height="14.92075"
         width="23.80971"
         id="rect8514"
         style="fill:#aaccff;fill-opacity:1;fill-rule:evenodd;stroke:#0007b5;stroke-width:1.9999996;stroke-linecap:butt;stroke-linejoin:miter;stroke-miterlimit:4;stroke-dasharray:none;stroke-dashoffset:0;stroke-opacity:1" />
      <rect
         transform="matrix(0.991023,-0.133693,0.133693,0.991023,0,0)"
         y="467.55283"
         x="417.01523"
         height="14.92075"
         width="23.80971"
         id="rect8516"
         style="fill:#aaccff;fill-opacity:1;fill-rule:evenodd;stroke:#0007b5;stroke-width:1.9999996;stroke-linecap:butt;stroke-linejoin:miter;stroke-miterlimit:4;stroke-dasharray:none;stroke-dashoffset:0;stroke-opacity:1" />
      <rect
         transform="matrix(0.991023,-0.133693,0.133693,0.991023,0,0)"
         y="468.71964"
         x="371.04938"
         height="14.92075"
         width="23.80971"
         id="rect8518"
         style="fill:#aaccff;fill-opacity:1;fill-rule:evenodd;stroke:#0007b5;stroke-width:1.9999996;stroke-linecap:butt;stroke-linejoin:miter;stroke-miterlimit:4;stroke-dasharray:none;stroke-dashoffset:0;stroke-opacity:1" />
      <path
         id="path8520"
         d="M 455.87673,419.11959 L 477.46419,415.94496"
         style="fill:none;fill-opacity:0.75;fill-rule:evenodd;stroke:#0007b5;stroke-width:2;stroke-linecap:butt;stroke-linejoin:miter;stroke-opacity:1;stroke-miterlimit:4;stroke-dasharray:none" />
      <rect
         transform="matrix(0.986418,-0.164256,0.164256,0.986418,0,0)"
         y="572.39087"
         x="387.42609"
         height="49.385723"
         width="72.731689"
         id="rect16455"
         style="fill:#ffd42a;fill-opacity:1;fill-rule:evenodd;stroke:#b57500;stroke-width:1.9999995;stroke-linecap:butt;stroke-linejoin:miter;stroke-miterlimit:4;stroke-dasharray:none;stroke-dashoffset:0;stroke-opacity:1" />
    </g>
  </g>
</svg>
