<?xml version="1.0" encoding="UTF-8" standalone="no"?>
<!-- Created with Inkscape (http://www.inkscape.org/) -->
<svg
   xmlns:dc="http://purl.org/dc/elements/1.1/"
   xmlns:cc="http://web.resource.org/cc/"
   xmlns:rdf="http://www.w3.org/1999/02/22-rdf-syntax-ns#"
   xmlns:svg="http://www.w3.org/2000/svg"
   xmlns="http://www.w3.org/2000/svg"
   xmlns:sodipodi="http://sodipodi.sourceforge.net/DTD/sodipodi-0.dtd"
   xmlns:inkscape="http://www.inkscape.org/namespaces/inkscape"
   width="710"
   height="520"
   id="svg2223"
   sodipodi:version="0.32"
   inkscape:version="0.45.1"
   version="1.0"
   sodipodi:docbase="/home/gai/Documents"
   sodipodi:docname="Jerusalem_oldcity_hebrew2.svg"
   inkscape:output_extension="org.inkscape.output.svg.inkscape">
  <defs
     id="defs2225" />
  <sodipodi:namedview
     id="base"
     pagecolor="#ffffff"
     bordercolor="#666666"
     borderopacity="1.0"
     gridtolerance="10000"
     guidetolerance="10"
     objecttolerance="10"
     inkscape:pageopacity="0.0"
     inkscape:pageshadow="2"
     inkscape:zoom="1.2"
     inkscape:cx="280.87191"
     inkscape:cy="255.13699"
     inkscape:document-units="px"
     inkscape:current-layer="layer1"
     width="710px"
     height="520px"
     borderlayer="true"
     inkscape:window-width="1280"
     inkscape:window-height="924"
     inkscape:window-x="0"
     inkscape:window-y="37" />
  <metadata
     id="metadata2228">
    <rdf:RDF>
      <cc:Work
         rdf:about="">
        <dc:format>image/svg+xml</dc:format>
        <dc:type
           rdf:resource="http://purl.org/dc/dcmitype/StillImage" />
      </cc:Work>
    </rdf:RDF>
  </metadata>
  <g
     inkscape:label="Layer 1"
     inkscape:groupmode="layer"
     id="layer1">
    <path
       style="fill:none;fill-opacity:0.75;fill-rule:evenodd;stroke:#000000;stroke-width:3;stroke-linecap:butt;stroke-linejoin:miter;stroke-miterlimit:4;stroke-opacity:1"
       d="M 121.30571,210.38409 L 126.26289,206.77887 L 128.9668,210.38409 L 154.65399,193.70995 L 156.00595,195.06191 L 174.93335,179.73972 L 186.19966,192.80865 L 209.63359,172.07863 L 208.73228,170.72667 L 212.78816,166.22015 L 214.59077,167.12146 L 247.93905,138.2797 L 247.93905,136.47709 L 251.54427,133.77317 L 249.74166,130.61861 L 253.34688,127.46404 L 257.8534,123.85882 L 261.45862,125.66143 L 272.72493,114.84577 L 272.72493,113.04316 L 290.75103,100.42489 L 290.75103,98.622277 L 295.70821,93.214447 L 303.81995,84.652053 L 302.91865,80.596181 L 310.57974,76.089656 L 317.79018,73.836394 L 326.80323,72.484436 L 329.50714,74.287046 L 339.87215,76.089656 L 351.58911,72.935089 L 352.03977,68.428564 L 366.00999,65.273997 L 366.46064,61.668777 L 370.96717,59.866168 L 371.86847,61.668777 L 437.66373,45.445289 L 436.76243,40.938764 L 495.34725,26.067233 L 497.14986,24.715276 L 501.65638,49.501161 L 503.45899,64.823345 L 504.81095,84.652053 L 507.51486,93.214447 L 508.41617,107.63533 L 510.21878,108.53664 L 512.47204,168.02276 L 512.92269,186.04886 L 517.87987,213.53866 L 518.78118,232.91671 L 521.03444,262.65978 L 525.99161,308.17567 L 529.14618,339.27069 L 470.02412,348.84636 L 470.42123,352.69012 L 466.72664,352.69012 L 467.1613,357.03669 L 463.68404,359.64464 L 468.03062,383.98543 L 407.17862,393.33056 L 390.44433,395.72117 L 379.5779,414.84608 L 354.36779,425.49518 L 349.1519,430.05908 L 347.84793,437.88291 L 348.71725,447.44537 L 349.80389,450.05331 L 347.41328,452.66125 L 343.93602,451.35728 L 317.20461,458.09446 L 316.76995,461.57172 L 300.47031,465.04898 L 300.68764,466.78761 L 287.64793,470.48219 L 286.77861,469.39555 L 253.31002,475.26342 L 247.44215,470.91685 L 186.59016,471.3515 L 187.02482,463.09302 L 188.54611,463.09302 L 188.98077,452.44392 L 186.37283,452.87858 L 187.02482,446.35872 L 188.54611,446.79338 L 189.41543,438.5349 L 185.72084,437.66558 L 187.24214,391.59193 L 188.11146,367.25113 L 175.28907,365.94716 L 175.94106,349.43019 L 180.28763,330.52261 L 182.02626,326.17604 L 185.93817,322.48146 L 183.33023,319.0042 L 180.93962,321.17748 L 177.67969,317.26557 L 177.0277,313.13633 L 153.77355,290.31683 L 121.17427,258.15221 L 121.60893,255.97892 L 119.43564,255.10961 L 119.43564,249.24174 L 113.56777,242.28723 L 117.91434,238.37531 L 129.30236,224.20549 L 120.95694,211.16578 L 121.30571,210.38409 z "
       id="path2232" />
    <path
       style="fill:none;fill-opacity:0.75;fill-rule:evenodd;stroke:#000000;stroke-width:1.25;stroke-linecap:butt;stroke-linejoin:miter;stroke-miterlimit:4;stroke-opacity:1"
       d="M 470.11697,349.56059 L 429.17227,357.38442 L 404.91841,198.82152 L 401.52808,193.86643 L 400.7457,187.86816 L 425.52116,185.52101 L 424.73877,178.74036 L 470.11697,174.56765 L 469.85617,169.87336 L 487.32939,169.87336 L 487.85098,172.74209 L 512.10484,170.13415"
       id="path3204" />
    <path
       style="fill:none;fill-opacity:0.75;fill-rule:evenodd;stroke:#000000;stroke-width:1.25;stroke-linecap:butt;stroke-linejoin:miter;stroke-miterlimit:4;stroke-opacity:1"
       d="M 185.59045,321.13402 L 206.45399,312.7886 L 221.05846,316.17893 L 301.64389,312.00622"
       id="path5146" />
    <path
       style="fill:none;fill-opacity:0.75;fill-rule:evenodd;stroke:#000000;stroke-width:1.25;stroke-linecap:butt;stroke-linejoin:miter;stroke-miterlimit:4;stroke-opacity:1"
       d="M 280.78035,107.80433 L 292.51609,129.45025 L 293.29847,145.3587 L 296.428,209.25329 L 300.60071,288.53474 L 301.38309,312.26701 L 307.12057,314.09257 L 330.59205,312.7886 L 334.24317,311.48463 L 365.27768,308.09431 L 369.71118,306.52954 L 379.62137,305.74716 L 399.96332,298.44492 L 419.0013,294.01142"
       id="path5148" />
    <path
       style="fill:none;fill-opacity:0.75;fill-rule:evenodd;stroke:#000000;stroke-width:1.25;stroke-linecap:butt;stroke-linejoin:miter;stroke-miterlimit:4;stroke-opacity:1"
       d="M 219.4937,471.3515 L 220.53688,465.61403 L 255.22251,468.22197 L 283.64908,464.31006 L 288.60417,461.18053 L 289.64735,435.3619 L 291.9945,407.9785 L 295.12403,353.99409 L 304.77342,353.7333 L 303.73024,334.69532 L 302.16547,333.65214 L 303.73024,313.31019"
       id="path5150" />
    <path
       style="font-size:22px;font-style:normal;font-variant:normal;font-weight:bold;font-stretch:normal;text-align:start;line-height:125%;writing-mode:lr-tb;text-anchor:start;fill:#ffffff;fill-opacity:1;fill-rule:nonzero;stroke:#000000;stroke-width:0.75;stroke-miterlimit:4;stroke-dashoffset:0;stroke-opacity:1;font-family:Arial"
       d="M 217.92894,468.48276 L 222.92894,468.48276 L 222.92894,473.48276 L 217.92894,473.48276 L 217.92894,468.48276 z "
       id="rect6139" />
    <path
       style="font-size:22px;font-style:normal;font-variant:normal;font-weight:bold;font-stretch:normal;text-align:start;line-height:125%;writing-mode:lr-tb;text-anchor:start;fill:#ffffff;fill-opacity:1;fill-rule:nonzero;stroke:#000000;stroke-width:0.75;stroke-miterlimit:4;stroke-dashoffset:0;stroke-opacity:1;font-family:Arial"
       d="M 409.19907,390.09164 L 414.19907,390.09164 L 414.19907,395.09164 L 409.19907,395.09164 L 409.19907,390.09164 z "
       id="rect7110" />
    <path
       style="font-size:22px;font-style:normal;font-variant:normal;font-weight:bold;font-stretch:normal;text-align:start;line-height:125%;writing-mode:lr-tb;text-anchor:start;fill:#ffffff;fill-opacity:1;fill-rule:nonzero;stroke:#000000;stroke-width:0.75;stroke-miterlimit:4;stroke-dashoffset:0;stroke-opacity:1;font-family:Arial"
       d="M 515.34235,223.96571 L 520.34235,223.96571 L 520.34235,228.96571 L 515.34235,228.96571 L 515.34235,223.96571 z "
       id="rect7112" />
    <path
       style="font-size:22px;font-style:normal;font-variant:normal;font-weight:bold;font-stretch:normal;text-align:start;line-height:125%;writing-mode:lr-tb;text-anchor:start;fill:#ffffff;fill-opacity:1;fill-rule:nonzero;stroke:#000000;stroke-width:0.75;stroke-miterlimit:4;stroke-dashoffset:0;stroke-opacity:1;font-family:Arial"
       d="M 509.08322,142.07632 L 514.08322,142.07632 L 514.08322,147.07632 L 509.08322,147.07632 L 509.08322,142.07632 z "
       id="rect7114" />
    <path
       style="font-size:22px;font-style:normal;font-variant:normal;font-weight:bold;font-stretch:normal;text-align:start;line-height:125%;writing-mode:lr-tb;text-anchor:start;fill:#ffffff;fill-opacity:1;fill-rule:nonzero;stroke:#000000;stroke-width:0.75;stroke-miterlimit:4;stroke-dashoffset:0;stroke-opacity:1;font-family:Arial"
       d="M 409.72064,49.494358 L 414.72064,49.494358 L 414.72064,54.494358 L 409.72064,54.494358 L 409.72064,49.494358 z "
       id="rect7116" />
    <path
       style="font-size:22px;font-style:normal;font-variant:normal;font-weight:bold;font-stretch:normal;text-align:start;line-height:125%;writing-mode:lr-tb;text-anchor:start;fill:#ffffff;fill-opacity:1;fill-rule:nonzero;stroke:#000000;stroke-width:0.75;stroke-miterlimit:4;stroke-dashoffset:0;stroke-opacity:1;font-family:Arial"
       d="M 277.75876,105.04351 L 282.75876,105.04351 L 282.75876,110.04351 L 277.75876,110.04351 L 277.75876,105.04351 z "
       id="rect7118" />
    <path
       style="font-size:22px;font-style:normal;font-variant:normal;font-weight:bold;font-stretch:normal;text-align:start;line-height:125%;writing-mode:lr-tb;text-anchor:start;fill:#ffffff;fill-opacity:1;fill-rule:nonzero;stroke:#000000;stroke-width:0.75;stroke-miterlimit:4;stroke-dashoffset:0;stroke-opacity:1;font-family:Arial"
       d="M 183.35124,317.85162 L 188.35124,317.85162 L 188.35124,322.85162 L 183.35124,322.85162 L 183.35124,317.85162 z "
       id="rect7120" />
    <path
       style="font-size:22px;font-style:normal;font-variant:normal;font-weight:bold;font-stretch:normal;text-align:start;line-height:125%;writing-mode:lr-tb;text-anchor:start;fill:#ffffff;fill-opacity:1;fill-rule:nonzero;stroke:#000000;stroke-width:0.75;stroke-miterlimit:4;stroke-dashoffset:0;stroke-opacity:1;font-family:Arial"
       d="M 129.18146,206.48412 L 134.18146,206.48412 L 134.18146,211.48412 L 129.18146,211.48412 L 129.18146,206.48412 z "
       id="rect7122" />
    <path
       transform="translate(-10,39.166667)"
       style="font-size:22px;font-style:normal;font-variant:normal;font-weight:bold;font-stretch:normal;text-align:start;line-height:125%;writing-mode:lr-tb;text-anchor:start;font-family:Arial"
       d="M 277.96289,58.465111 C 278.10612,59.052354 278.47135,59.546494 279.05859,59.947533 C 279.65299,60.341415 280.31184,60.538355 281.03516,60.538353 C 282.25976,60.538355 283.19075,60.169541 283.82812,59.431908 C 284.46548,58.68712 284.86294,57.301379 285.02051,55.274682 L 285.33203,51.095971 L 288.29688,51.095971 L 287.9209,55.457299 C 287.76333,57.30496 287.46971,58.669217 287.04004,59.550072 C 286.6175,60.430934 285.90494,61.193628 284.90234,61.838158 C 283.90689,62.482689 282.63215,62.804955 281.07812,62.804955 C 279.06575,62.804955 277.46875,62.153263 276.28711,60.849877 C 275.11263,59.546494 274.52539,57.580676 274.52539,54.952416 L 274.39648,51.095971 L 277.38281,51.095971 L 277.4043,54.114525 C 277.41145,54.515575 277.4401,55.095652 277.49023,55.85476 C 277.51171,56.184193 277.52246,56.41694 277.52246,56.553002 C 278.00944,56.553008 278.43912,56.434844 278.81152,56.19851 C 279.18391,55.955027 279.4274,55.632761 279.54199,55.231713 C 279.65657,54.830679 279.73893,54.128857 279.78906,53.126244 L 279.89648,51.095971 L 282.81836,51.095971 L 282.66797,53.910424 C 282.62499,54.648062 282.55338,55.220978 282.45312,55.629174 C 282.36002,56.030222 282.1595,56.438425 281.85156,56.853783 C 281.55077,57.261991 281.0817,57.612903 280.44434,57.906517 C 279.81412,58.19298 278.98697,58.379178 277.96289,58.465111 M 267.20996,60.248314 C 268.0192,59.940374 268.54557,59.510687 268.78906,58.959252 C 269.03254,58.407824 269.16503,57.584257 269.18652,56.488549 L 269.31543,51.095971 L 272.3125,51.095971 L 272.15137,55.188744 C 272.10839,56.434844 272.04035,57.380155 271.94727,58.024682 C 271.86132,58.662055 271.65722,59.295844 271.33496,59.926049 C 271.01985,60.556259 270.52571,61.125594 269.85254,61.634057 C 269.18652,62.14252 268.16601,62.618757 266.79102,63.062767 C 265.42317,63.513938 263.81543,63.889915 261.96777,64.190697 L 261.5918,61.719994 C 262.73763,61.54812 263.72949,61.358342 264.56738,61.150658 L 262.59082,51.095971 L 265.6416,51.095971 L 267.20996,60.248314 M 260.1416,62.493432 L 257.13379,62.493432 L 257.13379,56.88601 C 257.13378,55.668569 256.82942,54.798452 256.2207,54.275658 C 255.61914,53.75288 254.6595,53.491487 253.3418,53.491478 C 252.66862,53.491487 251.77702,53.559521 250.66699,53.69558 L 250.44141,51.321557 C 251.47265,51.08524 252.66146,50.967076 254.00781,50.967064 C 256.04882,50.967076 257.58137,51.393182 258.60547,52.245385 C 259.62955,53.097608 260.14159,54.461864 260.1416,56.338158 L 260.1416,62.493432 M 232.7168,58.465111 C 232.86002,59.052354 233.22526,59.546494 233.8125,59.947533 C 234.40689,60.341415 235.06575,60.538355 235.78906,60.538353 C 237.01366,60.538355 237.94465,60.169541 238.58203,59.431908 C 239.21939,58.68712 239.61685,57.301379 239.77441,55.274682 L 240.08594,51.095971 L 243.05078,51.095971 L 242.6748,55.457299 C 242.51724,57.30496 242.22362,58.669217 241.79395,59.550072 C 241.37141,60.430934 240.65884,61.193628 239.65625,61.838158 C 238.6608,62.482689 237.38606,62.804955 235.83203,62.804955 C 233.81966,62.804955 232.22265,62.153263 231.04102,60.849877 C 229.86653,59.546494 229.2793,57.580676 229.2793,54.952416 L 229.15039,51.095971 L 232.13672,51.095971 L 232.1582,54.114525 C 232.16536,54.515575 232.19401,55.095652 232.24414,55.85476 C 232.26562,56.184193 232.27636,56.41694 232.27637,56.553002 C 232.76334,56.553008 233.19303,56.434844 233.56543,56.19851 C 233.93782,55.955027 234.18131,55.632761 234.2959,55.231713 C 234.41048,54.830679 234.49283,54.128857 234.54297,53.126244 L 234.65039,51.095971 L 237.57227,51.095971 L 237.42188,53.910424 C 237.3789,54.648062 237.30728,55.220978 237.20703,55.629174 C 237.11392,56.030222 236.9134,56.438425 236.60547,56.853783 C 236.30468,57.261991 235.8356,57.612903 235.19824,57.906517 C 234.56803,58.19298 233.74088,58.379178 232.7168,58.465111 M 218.2041,62.321557 L 218.62305,59.958275 C 219.33919,60.208929 220.01237,60.334254 220.64258,60.334252 C 221.73112,60.334254 222.59049,60.015569 223.2207,59.378197 C 223.85091,58.740831 224.16601,57.881457 224.16602,56.800072 C 224.16601,55.711537 223.85449,54.848582 223.23145,54.211205 C 222.61555,53.573844 221.7526,53.25516 220.64258,53.25515 C 219.99088,53.25516 219.31771,53.380485 218.62305,53.631127 L 218.2041,51.278588 C 218.95605,51.042271 219.85123,50.924107 220.88965,50.924096 C 222.25748,50.924107 223.39257,51.146112 224.29492,51.590111 C 225.20442,52.034132 225.93847,52.675082 226.49707,53.512963 C 227.05565,54.350862 227.33495,55.446564 227.33496,56.800072 C 227.33495,58.096301 227.07356,59.163357 226.55078,60.001244 C 226.02799,60.831975 225.30468,61.483667 224.38086,61.956322 C 223.45703,62.428978 222.29329,62.665306 220.88965,62.665307 C 219.87272,62.665306 218.97754,62.550723 218.2041,62.321557 M 216.04492,62.493432 L 205.39941,62.493432 L 205.39941,51.321557 C 206.78157,51.08524 208.18164,50.967076 209.59961,50.967064 C 211.41145,50.967076 212.75422,51.189081 213.62793,51.63308 C 214.50878,52.077101 215.13182,52.667921 215.49707,53.405541 C 215.86229,54.136018 216.04491,55.113556 216.04492,56.338158 L 216.04492,62.493432 M 213.03711,59.893822 L 213.03711,56.510033 C 213.0371,55.514597 212.81868,54.759064 212.38184,54.243432 C 211.94498,53.727815 211.1429,53.470003 209.97559,53.469994 C 209.35253,53.470003 208.83333,53.509391 208.41797,53.588158 L 208.41797,59.893822 L 213.03711,59.893822"
       id="flowRoot7124" />
    <path
       transform="translate(-149.15576,137.02548)"
       style="font-size:22px;font-style:normal;font-variant:normal;font-weight:bold;font-stretch:normal;text-align:start;line-height:125%;writing-mode:lr-tb;text-anchor:start;font-family:Arial"
       d="M 287.79199,62.493432 L 284.78418,62.493432 L 284.78418,57.122338 C 284.78417,55.72586 284.43684,54.762645 283.74219,54.232689 C 283.05468,53.695589 282.01627,53.427034 280.62695,53.427025 C 279.58854,53.427034 278.45703,53.516552 277.23242,53.69558 L 277.01758,51.278588 C 278.18489,51.070917 279.56347,50.967076 281.15332,50.967064 C 282.87922,50.967076 284.21484,51.217727 285.16016,51.719017 C 286.10546,52.213168 286.77863,52.836215 287.17969,53.588158 C 287.58788,54.332958 287.79198,55.364207 287.79199,56.681908 L 287.79199,62.493432 M 280.16504,56.574486 L 280.16504,62.493432 L 277.14648,62.493432 L 277.14648,56.574486 L 280.16504,56.574486 M 264.42773,58.465111 C 264.57096,59.052354 264.93619,59.546494 265.52344,59.947533 C 266.11783,60.341415 266.77669,60.538355 267.5,60.538353 C 268.7246,60.538355 269.65559,60.169541 270.29297,59.431908 C 270.93033,58.68712 271.32779,57.301379 271.48535,55.274682 L 271.79688,51.095971 L 274.76172,51.095971 L 274.38574,55.457299 C 274.22818,57.30496 273.93456,58.669217 273.50488,59.550072 C 273.08234,60.430934 272.36978,61.193628 271.36719,61.838158 C 270.37173,62.482689 269.097,62.804955 267.54297,62.804955 C 265.53059,62.804955 263.93359,62.153263 262.75195,60.849877 C 261.57747,59.546494 260.99023,57.580676 260.99023,54.952416 L 260.86133,51.095971 L 263.84766,51.095971 L 263.86914,54.114525 C 263.8763,54.515575 263.90494,55.095652 263.95508,55.85476 C 263.97656,56.184193 263.9873,56.41694 263.9873,56.553002 C 264.47428,56.553008 264.90397,56.434844 265.27637,56.19851 C 265.64876,55.955027 265.89225,55.632761 266.00684,55.231713 C 266.12141,54.830679 266.20377,54.128857 266.25391,53.126244 L 266.36133,51.095971 L 269.2832,51.095971 L 269.13281,53.910424 C 269.08983,54.648062 269.01822,55.220978 268.91797,55.629174 C 268.82486,56.030222 268.62434,56.438425 268.31641,56.853783 C 268.01562,57.261991 267.54654,57.612903 266.90918,57.906517 C 266.27896,58.19298 265.45182,58.379178 264.42773,58.465111 M 253.6748,60.248314 C 254.48404,59.940374 255.01041,59.510687 255.25391,58.959252 C 255.49739,58.407824 255.62988,57.584257 255.65137,56.488549 L 255.78027,51.095971 L 258.77734,51.095971 L 258.61621,55.188744 C 258.57323,56.434844 258.5052,57.380155 258.41211,58.024682 C 258.32616,58.662055 258.12206,59.295844 257.7998,59.926049 C 257.48469,60.556259 256.99055,61.125594 256.31738,61.634057 C 255.65136,62.14252 254.63085,62.618757 253.25586,63.062767 C 251.88802,63.513938 250.28027,63.889915 248.43262,64.190697 L 248.05664,61.719994 C 249.20247,61.54812 250.19433,61.358342 251.03223,61.150658 L 249.05566,51.095971 L 252.10645,51.095971 L 253.6748,60.248314 M 246.60645,62.493432 L 243.59863,62.493432 L 243.59863,56.88601 C 243.59863,55.668569 243.29426,54.798452 242.68555,54.275658 C 242.08398,53.75288 241.12434,53.491487 239.80664,53.491478 C 239.13346,53.491487 238.24186,53.559521 237.13184,53.69558 L 236.90625,51.321557 C 237.9375,51.08524 239.1263,50.967076 240.47266,50.967064 C 242.51367,50.967076 244.04622,51.393182 245.07031,52.245385 C 246.09439,53.097608 246.60644,54.461864 246.60645,56.338158 L 246.60645,62.493432 M 229.01074,62.493432 L 226.00293,62.493432 L 226.00293,57.122338 C 226.00292,55.72586 225.65559,54.762645 224.96094,54.232689 C 224.27343,53.695589 223.23502,53.427034 221.8457,53.427025 C 220.80729,53.427034 219.67578,53.516552 218.45117,53.69558 L 218.23633,51.278588 C 219.40364,51.070917 220.78222,50.967076 222.37207,50.967064 C 224.09797,50.967076 225.43359,51.217727 226.37891,51.719017 C 227.32421,52.213168 227.99738,52.836215 228.39844,53.588158 C 228.80663,54.332958 229.01073,55.364207 229.01074,56.681908 L 229.01074,62.493432 M 221.38379,56.574486 L 221.38379,62.493432 L 218.36523,62.493432 L 218.36523,56.574486 L 221.38379,56.574486 M 215.40039,62.493432 L 212.39258,62.493432 L 212.39258,56.510033 C 212.39257,55.514597 212.17414,54.759064 211.7373,54.243432 C 211.30045,53.727815 210.49837,53.470003 209.33105,53.469994 C 208.708,53.470003 208.1888,53.509391 207.77344,53.588158 L 207.77344,62.493432 L 204.75488,62.493432 L 204.75488,51.321557 C 206.13704,51.08524 207.53711,50.967076 208.95508,50.967064 C 210.76692,50.967076 212.10969,51.189081 212.9834,51.63308 C 213.86425,52.077101 214.48729,52.667921 214.85254,53.405541 C 215.21776,54.136018 215.40038,55.113556 215.40039,56.338158 L 215.40039,62.493432 M 202.74609,53.69558 L 200.97363,53.69558 L 200.97363,62.493432 L 197.95508,62.493432 L 197.95508,53.69558 L 191.72461,53.69558 L 191.72461,51.095971 L 202.74609,51.095971 L 202.74609,53.69558 M 179.99414,58.465111 C 180.13737,59.052354 180.5026,59.546494 181.08984,59.947533 C 181.68424,60.341415 182.34309,60.538355 183.06641,60.538353 C 184.29101,60.538355 185.222,60.169541 185.85938,59.431908 C 186.49673,58.68712 186.89419,57.301379 187.05176,55.274682 L 187.36328,51.095971 L 190.32812,51.095971 L 189.95215,55.457299 C 189.79458,57.30496 189.50096,58.669217 189.07129,59.550072 C 188.64875,60.430934 187.93619,61.193628 186.93359,61.838158 C 185.93814,62.482689 184.6634,62.804955 183.10938,62.804955 C 181.097,62.804955 179.5,62.153263 178.31836,60.849877 C 177.14388,59.546494 176.55664,57.580676 176.55664,54.952416 L 176.42773,51.095971 L 179.41406,51.095971 L 179.43555,54.114525 C 179.4427,54.515575 179.47135,55.095652 179.52148,55.85476 C 179.54296,56.184193 179.55371,56.41694 179.55371,56.553002 C 180.04069,56.553008 180.47037,56.434844 180.84277,56.19851 C 181.21516,55.955027 181.45865,55.632761 181.57324,55.231713 C 181.68782,54.830679 181.77018,54.128857 181.82031,53.126244 L 181.92773,51.095971 L 184.84961,51.095971 L 184.69922,53.910424 C 184.65624,54.648062 184.58463,55.220978 184.48438,55.629174 C 184.39127,56.030222 184.19075,56.438425 183.88281,56.853783 C 183.58202,57.261991 183.11295,57.612903 182.47559,57.906517 C 181.84537,58.19298 181.01822,58.379178 179.99414,58.465111"
       id="flowRoot7132" />
    <path
       transform="translate(-116.65576,270.35881)"
       style="font-size:22px;font-style:normal;font-variant:normal;font-weight:bold;font-stretch:normal;text-align:start;line-height:125%;writing-mode:lr-tb;text-anchor:start;font-family:Arial"
       d="M 277.96289,58.465111 C 278.10612,59.052354 278.47135,59.546494 279.05859,59.947533 C 279.65299,60.341415 280.31184,60.538355 281.03516,60.538353 C 282.25976,60.538355 283.19075,60.169541 283.82812,59.431908 C 284.46548,58.68712 284.86294,57.301379 285.02051,55.274682 L 285.33203,51.095971 L 288.29688,51.095971 L 287.9209,55.457299 C 287.76333,57.30496 287.46971,58.669217 287.04004,59.550072 C 286.6175,60.430934 285.90494,61.193628 284.90234,61.838158 C 283.90689,62.482689 282.63215,62.804955 281.07812,62.804955 C 279.06575,62.804955 277.46875,62.153263 276.28711,60.849877 C 275.11263,59.546494 274.52539,57.580676 274.52539,54.952416 L 274.39648,51.095971 L 277.38281,51.095971 L 277.4043,54.114525 C 277.41145,54.515575 277.4401,55.095652 277.49023,55.85476 C 277.51171,56.184193 277.52246,56.41694 277.52246,56.553002 C 278.00944,56.553008 278.43912,56.434844 278.81152,56.19851 C 279.18391,55.955027 279.4274,55.632761 279.54199,55.231713 C 279.65657,54.830679 279.73893,54.128857 279.78906,53.126244 L 279.89648,51.095971 L 282.81836,51.095971 L 282.66797,53.910424 C 282.62499,54.648062 282.55338,55.220978 282.45312,55.629174 C 282.36002,56.030222 282.1595,56.438425 281.85156,56.853783 C 281.55077,57.261991 281.0817,57.612903 280.44434,57.906517 C 279.81412,58.19298 278.98697,58.379178 277.96289,58.465111 M 267.20996,60.248314 C 268.0192,59.940374 268.54557,59.510687 268.78906,58.959252 C 269.03254,58.407824 269.16503,57.584257 269.18652,56.488549 L 269.31543,51.095971 L 272.3125,51.095971 L 272.15137,55.188744 C 272.10839,56.434844 272.04035,57.380155 271.94727,58.024682 C 271.86132,58.662055 271.65722,59.295844 271.33496,59.926049 C 271.01985,60.556259 270.52571,61.125594 269.85254,61.634057 C 269.18652,62.14252 268.16601,62.618757 266.79102,63.062767 C 265.42317,63.513938 263.81543,63.889915 261.96777,64.190697 L 261.5918,61.719994 C 262.73763,61.54812 263.72949,61.358342 264.56738,61.150658 L 262.59082,51.095971 L 265.6416,51.095971 L 267.20996,60.248314 M 260.1416,62.493432 L 257.13379,62.493432 L 257.13379,56.88601 C 257.13378,55.668569 256.82942,54.798452 256.2207,54.275658 C 255.61914,53.75288 254.6595,53.491487 253.3418,53.491478 C 252.66862,53.491487 251.77702,53.559521 250.66699,53.69558 L 250.44141,51.321557 C 251.47265,51.08524 252.66146,50.967076 254.00781,50.967064 C 256.04882,50.967076 257.58137,51.393182 258.60547,52.245385 C 259.62955,53.097608 260.14159,54.461864 260.1416,56.338158 L 260.1416,62.493432 M 242.44922,51.095971 L 242.44922,57.455346 L 239.34473,57.455346 L 239.34473,51.095971 L 242.44922,51.095971 M 226.3252,51.450463 C 227.67871,51.08524 229.05729,50.902623 230.46094,50.902611 C 232.45898,50.902623 234.04882,51.428989 235.23047,52.481713 C 236.41926,53.527295 237.01366,54.88439 237.01367,56.553002 C 237.01366,58.493761 236.36913,59.997666 235.08008,61.064721 C 233.79101,62.131778 232.10449,62.665306 230.02051,62.665307 C 228.70996,62.665306 227.38151,62.425398 226.03516,61.94558 L 226.62598,59.915307 C 227.71452,60.330673 228.74935,60.538355 229.73047,60.538353 C 230.98372,60.538355 231.98632,60.21609 232.73828,59.571557 C 233.49023,58.919867 233.8662,57.956652 233.86621,56.681908 C 233.8662,55.514597 233.56184,54.597932 232.95312,53.931908 C 232.34439,53.265902 231.4886,52.932894 230.38574,52.932885 C 229.9847,52.932894 229.57649,52.972282 229.16113,53.051049 L 229.16113,54.372338 C 229.16113,55.417918 229.58007,55.940704 230.41797,55.940697 C 230.53255,55.940704 230.66145,55.933542 230.80469,55.919213 L 231.30957,57.788353 C 230.8011,58.003202 230.24609,58.110623 229.64453,58.110619 C 229.08593,58.110623 228.55957,58.010363 228.06543,57.809838 C 227.57845,57.609322 227.16666,57.25483 226.83008,56.746361 C 226.49349,56.237904 226.32519,55.360626 226.3252,54.114525 L 226.3252,51.450463 M 223.5,51.095971 L 223.5,62.493432 L 220.39551,62.493432 L 220.39551,51.095971 L 223.5,51.095971"
       id="flowRoot7140" />
    <path
       transform="translate(-56.655762,427.85881)"
       style="font-size:22px;font-style:normal;font-variant:normal;font-weight:bold;font-stretch:normal;text-align:start;line-height:125%;writing-mode:lr-tb;text-anchor:start;font-family:Arial"
       d="M 277.96289,58.465111 C 278.10612,59.052354 278.47135,59.546494 279.05859,59.947533 C 279.65299,60.341415 280.31184,60.538355 281.03516,60.538353 C 282.25976,60.538355 283.19075,60.169541 283.82812,59.431908 C 284.46548,58.68712 284.86294,57.301379 285.02051,55.274682 L 285.33203,51.095971 L 288.29688,51.095971 L 287.9209,55.457299 C 287.76333,57.30496 287.46971,58.669217 287.04004,59.550072 C 286.6175,60.430934 285.90494,61.193628 284.90234,61.838158 C 283.90689,62.482689 282.63215,62.804955 281.07812,62.804955 C 279.06575,62.804955 277.46875,62.153263 276.28711,60.849877 C 275.11263,59.546494 274.52539,57.580676 274.52539,54.952416 L 274.39648,51.095971 L 277.38281,51.095971 L 277.4043,54.114525 C 277.41145,54.515575 277.4401,55.095652 277.49023,55.85476 C 277.51171,56.184193 277.52246,56.41694 277.52246,56.553002 C 278.00944,56.553008 278.43912,56.434844 278.81152,56.19851 C 279.18391,55.955027 279.4274,55.632761 279.54199,55.231713 C 279.65657,54.830679 279.73893,54.128857 279.78906,53.126244 L 279.89648,51.095971 L 282.81836,51.095971 L 282.66797,53.910424 C 282.62499,54.648062 282.55338,55.220978 282.45312,55.629174 C 282.36002,56.030222 282.1595,56.438425 281.85156,56.853783 C 281.55077,57.261991 281.0817,57.612903 280.44434,57.906517 C 279.81412,58.19298 278.98697,58.379178 277.96289,58.465111 M 267.20996,60.248314 C 268.0192,59.940374 268.54557,59.510687 268.78906,58.959252 C 269.03254,58.407824 269.16503,57.584257 269.18652,56.488549 L 269.31543,51.095971 L 272.3125,51.095971 L 272.15137,55.188744 C 272.10839,56.434844 272.04035,57.380155 271.94727,58.024682 C 271.86132,58.662055 271.65722,59.295844 271.33496,59.926049 C 271.01985,60.556259 270.52571,61.125594 269.85254,61.634057 C 269.18652,62.14252 268.16601,62.618757 266.79102,63.062767 C 265.42317,63.513938 263.81543,63.889915 261.96777,64.190697 L 261.5918,61.719994 C 262.73763,61.54812 263.72949,61.358342 264.56738,61.150658 L 262.59082,51.095971 L 265.6416,51.095971 L 267.20996,60.248314 M 260.1416,62.493432 L 257.13379,62.493432 L 257.13379,56.88601 C 257.13378,55.668569 256.82942,54.798452 256.2207,54.275658 C 255.61914,53.75288 254.6595,53.491487 253.3418,53.491478 C 252.66862,53.491487 251.77702,53.559521 250.66699,53.69558 L 250.44141,51.321557 C 251.47265,51.08524 252.66146,50.967076 254.00781,50.967064 C 256.04882,50.967076 257.58137,51.393182 258.60547,52.245385 C 259.62955,53.097608 260.14159,54.461864 260.1416,56.338158 L 260.1416,62.493432 M 242.83594,51.095971 L 242.72852,52.857689 L 242.65332,53.856713 C 242.63183,54.178987 242.57453,54.504833 242.48145,54.834252 C 242.38834,55.163686 242.23795,55.493113 242.03027,55.822533 C 241.82974,56.144805 241.57193,56.445586 241.25684,56.724877 C 240.94172,57.004179 240.56575,57.261991 240.12891,57.498314 L 242.45996,61.150658 L 242.45996,62.493432 L 233.41504,62.493432 L 233.41504,59.893822 L 238.49609,59.893822 L 232.75977,51.095971 L 236.01465,51.095971 L 238.87207,55.521752 C 239.22298,55.421498 239.45214,55.242462 239.55957,54.984642 C 239.67415,54.719676 239.76008,54.025016 239.81738,52.900658 L 239.91406,51.095971 L 242.83594,51.095971 M 231.19141,51.095971 L 231.19141,57.455346 L 228.08691,57.455346 L 228.08691,51.095971 L 231.19141,51.095971 M 225.17578,51.095971 L 225.17578,62.493432 L 222.07129,62.493432 L 222.07129,51.095971 L 225.17578,51.095971 M 219.16016,51.095971 L 219.16016,66.876244 L 216.05566,66.876244 L 216.05566,51.095971 L 219.16016,51.095971"
       id="flowRoot7148" />
    <path
       transform="translate(234.17757,352.85881)"
       style="font-size:22px;font-style:normal;font-variant:normal;font-weight:bold;font-stretch:normal;text-align:start;line-height:125%;writing-mode:lr-tb;text-anchor:start;font-family:Arial"
       d="M 277.96289,58.465111 C 278.10612,59.052354 278.47135,59.546494 279.05859,59.947533 C 279.65299,60.341415 280.31184,60.538355 281.03516,60.538353 C 282.25976,60.538355 283.19075,60.169541 283.82812,59.431908 C 284.46548,58.68712 284.86294,57.301379 285.02051,55.274682 L 285.33203,51.095971 L 288.29688,51.095971 L 287.9209,55.457299 C 287.76333,57.30496 287.46971,58.669217 287.04004,59.550072 C 286.6175,60.430934 285.90494,61.193628 284.90234,61.838158 C 283.90689,62.482689 282.63215,62.804955 281.07812,62.804955 C 279.06575,62.804955 277.46875,62.153263 276.28711,60.849877 C 275.11263,59.546494 274.52539,57.580676 274.52539,54.952416 L 274.39648,51.095971 L 277.38281,51.095971 L 277.4043,54.114525 C 277.41145,54.515575 277.4401,55.095652 277.49023,55.85476 C 277.51171,56.184193 277.52246,56.41694 277.52246,56.553002 C 278.00944,56.553008 278.43912,56.434844 278.81152,56.19851 C 279.18391,55.955027 279.4274,55.632761 279.54199,55.231713 C 279.65657,54.830679 279.73893,54.128857 279.78906,53.126244 L 279.89648,51.095971 L 282.81836,51.095971 L 282.66797,53.910424 C 282.62499,54.648062 282.55338,55.220978 282.45312,55.629174 C 282.36002,56.030222 282.1595,56.438425 281.85156,56.853783 C 281.55077,57.261991 281.0817,57.612903 280.44434,57.906517 C 279.81412,58.19298 278.98697,58.379178 277.96289,58.465111 M 267.20996,60.248314 C 268.0192,59.940374 268.54557,59.510687 268.78906,58.959252 C 269.03254,58.407824 269.16503,57.584257 269.18652,56.488549 L 269.31543,51.095971 L 272.3125,51.095971 L 272.15137,55.188744 C 272.10839,56.434844 272.04035,57.380155 271.94727,58.024682 C 271.86132,58.662055 271.65722,59.295844 271.33496,59.926049 C 271.01985,60.556259 270.52571,61.125594 269.85254,61.634057 C 269.18652,62.14252 268.16601,62.618757 266.79102,63.062767 C 265.42317,63.513938 263.81543,63.889915 261.96777,64.190697 L 261.5918,61.719994 C 262.73763,61.54812 263.72949,61.358342 264.56738,61.150658 L 262.59082,51.095971 L 265.6416,51.095971 L 267.20996,60.248314 M 260.1416,62.493432 L 257.13379,62.493432 L 257.13379,56.88601 C 257.13378,55.668569 256.82942,54.798452 256.2207,54.275658 C 255.61914,53.75288 254.6595,53.491487 253.3418,53.491478 C 252.66862,53.491487 251.77702,53.559521 250.66699,53.69558 L 250.44141,51.321557 C 251.47265,51.08524 252.66146,50.967076 254.00781,50.967064 C 256.04882,50.967076 257.58137,51.393182 258.60547,52.245385 C 259.62955,53.097608 260.14159,54.461864 260.1416,56.338158 L 260.1416,62.493432 M 242.5459,62.493432 L 239.53809,62.493432 L 239.53809,57.122338 C 239.53808,55.72586 239.19075,54.762645 238.49609,54.232689 C 237.80859,53.695589 236.77018,53.427034 235.38086,53.427025 C 234.34244,53.427034 233.21093,53.516552 231.98633,53.69558 L 231.77148,51.278588 C 232.9388,51.070917 234.31738,50.967076 235.90723,50.967064 C 237.63313,50.967076 238.96874,51.217727 239.91406,51.719017 C 240.85936,52.213168 241.53254,52.836215 241.93359,53.588158 C 242.34178,54.332958 242.54589,55.364207 242.5459,56.681908 L 242.5459,62.493432 M 234.91895,56.574486 L 234.91895,62.493432 L 231.90039,62.493432 L 231.90039,56.574486 L 234.91895,56.574486 M 226.67969,57.648705 L 230.11719,62.493432 L 226.57227,62.493432 L 222.58691,56.864525 C 222.08561,57.358671 221.7705,58.479438 221.6416,60.22683 L 221.46973,62.493432 L 218.54785,62.493432 L 218.7627,60.076439 C 218.90592,58.436469 219.18522,57.258411 219.60059,56.54226 C 220.01595,55.82612 220.54231,55.271108 221.17969,54.877221 L 218.52637,51.095971 L 222.06055,51.095971 L 225.3584,55.75808 C 225.91698,55.349884 226.25715,54.418895 226.37891,52.965111 L 226.5293,51.095971 L 229.32227,51.095971 L 229.19336,52.481713 C 229.04296,54.093049 228.76366,55.242462 228.35547,55.929955 C 227.94726,56.610299 227.38866,57.183215 226.67969,57.648705 M 206.37695,58.465111 C 206.52018,59.052354 206.88541,59.546494 207.47266,59.947533 C 208.06705,60.341415 208.7259,60.538355 209.44922,60.538353 C 210.67382,60.538355 211.60481,60.169541 212.24219,59.431908 C 212.87955,58.68712 213.27701,57.301379 213.43457,55.274682 L 213.74609,51.095971 L 216.71094,51.095971 L 216.33496,55.457299 C 216.17739,57.30496 215.88378,58.669217 215.4541,59.550072 C 215.03156,60.430934 214.319,61.193628 213.31641,61.838158 C 212.32095,62.482689 211.04621,62.804955 209.49219,62.804955 C 207.47981,62.804955 205.88281,62.153263 204.70117,60.849877 C 203.52669,59.546494 202.93945,57.580676 202.93945,54.952416 L 202.81055,51.095971 L 205.79688,51.095971 L 205.81836,54.114525 C 205.82552,54.515575 205.85416,55.095652 205.9043,55.85476 C 205.92578,56.184193 205.93652,56.41694 205.93652,56.553002 C 206.4235,56.553008 206.85319,56.434844 207.22559,56.19851 C 207.59798,55.955027 207.84147,55.632761 207.95605,55.231713 C 208.07063,54.830679 208.15299,54.128857 208.20312,53.126244 L 208.31055,51.095971 L 211.23242,51.095971 L 211.08203,53.910424 C 211.03905,54.648062 210.96744,55.220978 210.86719,55.629174 C 210.77408,56.030222 210.57356,56.438425 210.26562,56.853783 C 209.96484,57.261991 209.49576,57.612903 208.8584,57.906517 C 208.22818,58.19298 207.40104,58.379178 206.37695,58.465111 M 190.27441,51.450463 C 191.62793,51.08524 193.00651,50.902623 194.41016,50.902611 C 196.4082,50.902623 197.99804,51.428989 199.17969,52.481713 C 200.36848,53.527295 200.96288,54.88439 200.96289,56.553002 C 200.96288,58.493761 200.31835,59.997666 199.0293,61.064721 C 197.74023,62.131778 196.0537,62.665306 193.96973,62.665307 C 192.65918,62.665306 191.33073,62.425398 189.98438,61.94558 L 190.5752,59.915307 C 191.66373,60.330673 192.69856,60.538355 193.67969,60.538353 C 194.93294,60.538355 195.93554,60.21609 196.6875,59.571557 C 197.43944,58.919867 197.81542,57.956652 197.81543,56.681908 C 197.81542,55.514597 197.51106,54.597932 196.90234,53.931908 C 196.29361,53.265902 195.43782,52.932894 194.33496,52.932885 C 193.93391,52.932894 193.52571,52.972282 193.11035,53.051049 L 193.11035,54.372338 C 193.11035,55.417918 193.52929,55.940704 194.36719,55.940697 C 194.48177,55.940704 194.61067,55.933542 194.75391,55.919213 L 195.25879,57.788353 C 194.75032,58.003202 194.19531,58.110623 193.59375,58.110619 C 193.03515,58.110623 192.50879,58.010363 192.01465,57.809838 C 191.52767,57.609322 191.11588,57.25483 190.7793,56.746361 C 190.44271,56.237904 190.27441,55.360626 190.27441,54.114525 L 190.27441,51.450463 M 187.44922,51.095971 L 187.44922,62.493432 L 184.34473,62.493432 L 184.34473,51.095971 L 187.44922,51.095971 M 169.01562,60.22683 C 169.45247,60.370061 169.84277,60.441676 170.18652,60.441674 C 170.61621,60.441676 170.89909,60.337835 171.03516,60.13015 C 171.17122,59.915309 171.23925,59.514268 171.23926,58.927025 L 171.23926,53.469994 C 170.73795,53.470003 169.97526,53.530875 168.95117,53.652611 L 168.71484,51.321557 C 170.5625,51.08524 172.48177,50.967076 174.47266,50.967064 C 176.15559,50.967076 177.48762,51.113886 178.46875,51.407494 C 179.44986,51.701125 180.18749,52.238233 180.68164,53.018822 C 181.18293,53.79943 181.43358,54.905874 181.43359,56.338158 L 181.43359,62.493432 L 178.41504,62.493432 L 178.41504,56.88601 C 178.41503,55.439402 178.17512,54.49051 177.69531,54.03933 C 177.21549,53.588167 176.06965,53.362581 174.25781,53.362572 L 174.25781,59.066674 C 174.25781,60.033473 174.18261,60.728134 174.03223,61.150658 C 173.88899,61.566024 173.58821,61.909773 173.12988,62.181908 C 172.67154,62.446882 172.01985,62.579369 171.1748,62.579369 C 170.25814,62.579369 169.38444,62.446882 168.55371,62.181908 L 169.01562,60.22683"
       id="flowRoot7156" />
    <path
       transform="translate(354.17757,174.52548)"
       style="font-size:22px;font-style:normal;font-variant:normal;font-weight:bold;font-stretch:normal;text-align:start;line-height:125%;writing-mode:lr-tb;text-anchor:start;font-family:Arial"
       d="M 277.96289,58.465111 C 278.10612,59.052354 278.47135,59.546494 279.05859,59.947533 C 279.65299,60.341415 280.31184,60.538355 281.03516,60.538353 C 282.25976,60.538355 283.19075,60.169541 283.82812,59.431908 C 284.46548,58.68712 284.86294,57.301379 285.02051,55.274682 L 285.33203,51.095971 L 288.29688,51.095971 L 287.9209,55.457299 C 287.76333,57.30496 287.46971,58.669217 287.04004,59.550072 C 286.6175,60.430934 285.90494,61.193628 284.90234,61.838158 C 283.90689,62.482689 282.63215,62.804955 281.07812,62.804955 C 279.06575,62.804955 277.46875,62.153263 276.28711,60.849877 C 275.11263,59.546494 274.52539,57.580676 274.52539,54.952416 L 274.39648,51.095971 L 277.38281,51.095971 L 277.4043,54.114525 C 277.41145,54.515575 277.4401,55.095652 277.49023,55.85476 C 277.51171,56.184193 277.52246,56.41694 277.52246,56.553002 C 278.00944,56.553008 278.43912,56.434844 278.81152,56.19851 C 279.18391,55.955027 279.4274,55.632761 279.54199,55.231713 C 279.65657,54.830679 279.73893,54.128857 279.78906,53.126244 L 279.89648,51.095971 L 282.81836,51.095971 L 282.66797,53.910424 C 282.62499,54.648062 282.55338,55.220978 282.45312,55.629174 C 282.36002,56.030222 282.1595,56.438425 281.85156,56.853783 C 281.55077,57.261991 281.0817,57.612903 280.44434,57.906517 C 279.81412,58.19298 278.98697,58.379178 277.96289,58.465111 M 267.20996,60.248314 C 268.0192,59.940374 268.54557,59.510687 268.78906,58.959252 C 269.03254,58.407824 269.16503,57.584257 269.18652,56.488549 L 269.31543,51.095971 L 272.3125,51.095971 L 272.15137,55.188744 C 272.10839,56.434844 272.04035,57.380155 271.94727,58.024682 C 271.86132,58.662055 271.65722,59.295844 271.33496,59.926049 C 271.01985,60.556259 270.52571,61.125594 269.85254,61.634057 C 269.18652,62.14252 268.16601,62.618757 266.79102,63.062767 C 265.42317,63.513938 263.81543,63.889915 261.96777,64.190697 L 261.5918,61.719994 C 262.73763,61.54812 263.72949,61.358342 264.56738,61.150658 L 262.59082,51.095971 L 265.6416,51.095971 L 267.20996,60.248314 M 260.1416,62.493432 L 257.13379,62.493432 L 257.13379,56.88601 C 257.13378,55.668569 256.82942,54.798452 256.2207,54.275658 C 255.61914,53.75288 254.6595,53.491487 253.3418,53.491478 C 252.66862,53.491487 251.77702,53.559521 250.66699,53.69558 L 250.44141,51.321557 C 251.47265,51.08524 252.66146,50.967076 254.00781,50.967064 C 256.04882,50.967076 257.58137,51.393182 258.60547,52.245385 C 259.62955,53.097608 260.14159,54.461864 260.1416,56.338158 L 260.1416,62.493432 M 242.5459,62.493432 L 239.53809,62.493432 L 239.53809,57.122338 C 239.53808,55.72586 239.19075,54.762645 238.49609,54.232689 C 237.80859,53.695589 236.77018,53.427034 235.38086,53.427025 C 234.34244,53.427034 233.21093,53.516552 231.98633,53.69558 L 231.77148,51.278588 C 232.9388,51.070917 234.31738,50.967076 235.90723,50.967064 C 237.63313,50.967076 238.96874,51.217727 239.91406,51.719017 C 240.85936,52.213168 241.53254,52.836215 241.93359,53.588158 C 242.34178,54.332958 242.54589,55.364207 242.5459,56.681908 L 242.5459,62.493432 M 234.91895,56.574486 L 234.91895,62.493432 L 231.90039,62.493432 L 231.90039,56.574486 L 234.91895,56.574486 M 229.03223,62.493432 L 226.02441,62.493432 L 226.02441,56.88601 C 226.02441,55.668569 225.72005,54.798452 225.11133,54.275658 C 224.50976,53.75288 223.55013,53.491487 222.23242,53.491478 C 221.55924,53.491487 220.66764,53.559521 219.55762,53.69558 L 219.33203,51.321557 C 220.36328,51.08524 221.55208,50.967076 222.89844,50.967064 C 224.93945,50.967076 226.472,51.393182 227.49609,52.245385 C 228.52017,53.097608 229.03222,54.461864 229.03223,56.338158 L 229.03223,62.493432 M 217.46289,62.493432 L 214.45508,62.493432 L 214.45508,56.510033 C 214.45507,55.514597 214.23664,54.759064 213.7998,54.243432 C 213.36295,53.727815 212.56087,53.470003 211.39355,53.469994 C 210.7705,53.470003 210.2513,53.509391 209.83594,53.588158 L 209.83594,62.493432 L 206.81738,62.493432 L 206.81738,51.321557 C 208.19954,51.08524 209.59961,50.967076 211.01758,50.967064 C 212.82942,50.967076 214.17219,51.189081 215.0459,51.63308 C 215.92675,52.077101 216.54979,52.667921 216.91504,53.405541 C 217.28026,54.136018 217.46288,55.113556 217.46289,56.338158 L 217.46289,62.493432 M 195.48438,53.534447 C 196.61588,51.822869 197.9873,50.967076 199.59863,50.967064 C 200.94498,50.967076 202.01561,51.504185 202.81055,52.578392 C 203.60546,53.645459 204.00292,55.374949 204.00293,57.766869 L 204.00293,62.493432 L 198.19141,62.493432 L 198.19141,59.893822 L 200.98438,59.893822 L 200.98438,57.605736 C 200.98437,56.108998 200.85904,55.063426 200.6084,54.469017 C 200.35774,53.867464 199.92089,53.566683 199.29785,53.566674 C 198.63899,53.566683 198.09472,53.924755 197.66504,54.640892 C 197.23535,55.349884 196.84147,56.685495 196.4834,58.647728 L 195.7959,62.493432 L 192.60547,62.493432 L 193.13184,60.011986 C 193.44694,58.543891 193.7334,57.466093 193.99121,56.778588 L 192.0791,51.095971 L 194.80762,51.095971 L 195.48438,53.534447 M 190.02734,51.095971 L 190.02734,57.455346 L 186.92285,57.455346 L 186.92285,51.095971 L 190.02734,51.095971 M 184.11914,62.493432 L 173.47363,62.493432 L 173.47363,51.321557 C 174.85579,51.08524 176.25586,50.967076 177.67383,50.967064 C 179.48567,50.967076 180.82844,51.189081 181.70215,51.63308 C 182.583,52.077101 183.20604,52.667921 183.57129,53.405541 C 183.93651,54.136018 184.11913,55.113556 184.11914,56.338158 L 184.11914,62.493432 M 181.11133,59.893822 L 181.11133,56.510033 C 181.11132,55.514597 180.89289,54.759064 180.45605,54.243432 C 180.0192,53.727815 179.21712,53.470003 178.0498,53.469994 C 177.42675,53.470003 176.90755,53.509391 176.49219,53.588158 L 176.49219,59.893822 L 181.11133,59.893822"
       id="flowRoot7164" />
    <path
       transform="translate(342.51091,86.192144)"
       style="font-size:22px;font-style:normal;font-variant:normal;font-weight:bold;font-stretch:normal;text-align:start;line-height:125%;writing-mode:lr-tb;text-anchor:start;font-family:Arial"
       d="M 277.96289,58.465111 C 278.10612,59.052354 278.47135,59.546494 279.05859,59.947533 C 279.65299,60.341415 280.31184,60.538355 281.03516,60.538353 C 282.25976,60.538355 283.19075,60.169541 283.82812,59.431908 C 284.46548,58.68712 284.86294,57.301379 285.02051,55.274682 L 285.33203,51.095971 L 288.29688,51.095971 L 287.9209,55.457299 C 287.76333,57.30496 287.46971,58.669217 287.04004,59.550072 C 286.6175,60.430934 285.90494,61.193628 284.90234,61.838158 C 283.90689,62.482689 282.63215,62.804955 281.07812,62.804955 C 279.06575,62.804955 277.46875,62.153263 276.28711,60.849877 C 275.11263,59.546494 274.52539,57.580676 274.52539,54.952416 L 274.39648,51.095971 L 277.38281,51.095971 L 277.4043,54.114525 C 277.41145,54.515575 277.4401,55.095652 277.49023,55.85476 C 277.51171,56.184193 277.52246,56.41694 277.52246,56.553002 C 278.00944,56.553008 278.43912,56.434844 278.81152,56.19851 C 279.18391,55.955027 279.4274,55.632761 279.54199,55.231713 C 279.65657,54.830679 279.73893,54.128857 279.78906,53.126244 L 279.89648,51.095971 L 282.81836,51.095971 L 282.66797,53.910424 C 282.62499,54.648062 282.55338,55.220978 282.45312,55.629174 C 282.36002,56.030222 282.1595,56.438425 281.85156,56.853783 C 281.55077,57.261991 281.0817,57.612903 280.44434,57.906517 C 279.81412,58.19298 278.98697,58.379178 277.96289,58.465111 M 267.20996,60.248314 C 268.0192,59.940374 268.54557,59.510687 268.78906,58.959252 C 269.03254,58.407824 269.16503,57.584257 269.18652,56.488549 L 269.31543,51.095971 L 272.3125,51.095971 L 272.15137,55.188744 C 272.10839,56.434844 272.04035,57.380155 271.94727,58.024682 C 271.86132,58.662055 271.65722,59.295844 271.33496,59.926049 C 271.01985,60.556259 270.52571,61.125594 269.85254,61.634057 C 269.18652,62.14252 268.16601,62.618757 266.79102,63.062767 C 265.42317,63.513938 263.81543,63.889915 261.96777,64.190697 L 261.5918,61.719994 C 262.73763,61.54812 263.72949,61.358342 264.56738,61.150658 L 262.59082,51.095971 L 265.6416,51.095971 L 267.20996,60.248314 M 260.1416,62.493432 L 257.13379,62.493432 L 257.13379,56.88601 C 257.13378,55.668569 256.82942,54.798452 256.2207,54.275658 C 255.61914,53.75288 254.6595,53.491487 253.3418,53.491478 C 252.66862,53.491487 251.77702,53.559521 250.66699,53.69558 L 250.44141,51.321557 C 251.47265,51.08524 252.66146,50.967076 254.00781,50.967064 C 256.04882,50.967076 257.58137,51.393182 258.60547,52.245385 C 259.62955,53.097608 260.14159,54.461864 260.1416,56.338158 L 260.1416,62.493432 M 242.5459,62.493432 L 239.53809,62.493432 L 239.53809,57.122338 C 239.53808,55.72586 239.19075,54.762645 238.49609,54.232689 C 237.80859,53.695589 236.77018,53.427034 235.38086,53.427025 C 234.34244,53.427034 233.21093,53.516552 231.98633,53.69558 L 231.77148,51.278588 C 232.9388,51.070917 234.31738,50.967076 235.90723,50.967064 C 237.63313,50.967076 238.96874,51.217727 239.91406,51.719017 C 240.85936,52.213168 241.53254,52.836215 241.93359,53.588158 C 242.34178,54.332958 242.54589,55.364207 242.5459,56.681908 L 242.5459,62.493432 M 234.91895,56.574486 L 234.91895,62.493432 L 231.90039,62.493432 L 231.90039,56.574486 L 234.91895,56.574486 M 226.67969,57.648705 L 230.11719,62.493432 L 226.57227,62.493432 L 222.58691,56.864525 C 222.08561,57.358671 221.7705,58.479438 221.6416,60.22683 L 221.46973,62.493432 L 218.54785,62.493432 L 218.7627,60.076439 C 218.90592,58.436469 219.18522,57.258411 219.60059,56.54226 C 220.01595,55.82612 220.54231,55.271108 221.17969,54.877221 L 218.52637,51.095971 L 222.06055,51.095971 L 225.3584,55.75808 C 225.91698,55.349884 226.25715,54.418895 226.37891,52.965111 L 226.5293,51.095971 L 229.32227,51.095971 L 229.19336,52.481713 C 229.04296,54.093049 228.76366,55.242462 228.35547,55.929955 C 227.94726,56.610299 227.38866,57.183215 226.67969,57.648705 M 216.22754,62.493432 L 213.21973,62.493432 L 213.21973,56.88601 C 213.21972,55.668569 212.91536,54.798452 212.30664,54.275658 C 211.70507,53.75288 210.74544,53.491487 209.42773,53.491478 C 208.75455,53.491487 207.86295,53.559521 206.75293,53.69558 L 206.52734,51.321557 C 207.55859,51.08524 208.74739,50.967076 210.09375,50.967064 C 212.13476,50.967076 213.66731,51.393182 214.69141,52.245385 C 215.71549,53.097608 216.22753,54.461864 216.22754,56.338158 L 216.22754,62.493432 M 204.63672,51.095971 L 204.63672,57.455346 L 201.53223,57.455346 L 201.53223,51.095971 L 204.63672,51.095971 M 198.62109,51.095971 L 198.62109,62.493432 L 195.5166,62.493432 L 195.5166,51.095971 L 198.62109,51.095971 M 180.1875,60.22683 C 180.62435,60.370061 181.01465,60.441676 181.3584,60.441674 C 181.78808,60.441676 182.07096,60.337835 182.20703,60.13015 C 182.3431,59.915309 182.41113,59.514268 182.41113,58.927025 L 182.41113,53.469994 C 181.90983,53.470003 181.14713,53.530875 180.12305,53.652611 L 179.88672,51.321557 C 181.73437,51.08524 183.65364,50.967076 185.64453,50.967064 C 187.32747,50.967076 188.6595,51.113886 189.64062,51.407494 C 190.62173,51.701125 191.35936,52.238233 191.85352,53.018822 C 192.3548,53.79943 192.60546,54.905874 192.60547,56.338158 L 192.60547,62.493432 L 189.58691,62.493432 L 189.58691,56.88601 C 189.5869,55.439402 189.347,54.49051 188.86719,54.03933 C 188.38736,53.588167 187.24153,53.362581 185.42969,53.362572 L 185.42969,59.066674 C 185.42968,60.033473 185.35449,60.728134 185.2041,61.150658 C 185.06087,61.566024 184.76009,61.909773 184.30176,62.181908 C 183.84342,62.446882 183.19173,62.579369 182.34668,62.579369 C 181.43001,62.579369 180.55631,62.446882 179.72559,62.181908 L 180.1875,60.22683"
       id="flowRoot7172" />
    <path
       transform="translate(130.84424,-18.80786)"
       style="font-size:22px;font-style:normal;font-variant:normal;font-weight:bold;font-stretch:normal;text-align:start;line-height:125%;writing-mode:lr-tb;text-anchor:start;font-family:Arial"
       d="M 277.96289,58.465111 C 278.10612,59.052354 278.47135,59.546494 279.05859,59.947533 C 279.65299,60.341415 280.31184,60.538355 281.03516,60.538353 C 282.25976,60.538355 283.19075,60.169541 283.82812,59.431908 C 284.46548,58.68712 284.86294,57.301379 285.02051,55.274682 L 285.33203,51.095971 L 288.29688,51.095971 L 287.9209,55.457299 C 287.76333,57.30496 287.46971,58.669217 287.04004,59.550072 C 286.6175,60.430934 285.90494,61.193628 284.90234,61.838158 C 283.90689,62.482689 282.63215,62.804955 281.07812,62.804955 C 279.06575,62.804955 277.46875,62.153263 276.28711,60.849877 C 275.11263,59.546494 274.52539,57.580676 274.52539,54.952416 L 274.39648,51.095971 L 277.38281,51.095971 L 277.4043,54.114525 C 277.41145,54.515575 277.4401,55.095652 277.49023,55.85476 C 277.51171,56.184193 277.52246,56.41694 277.52246,56.553002 C 278.00944,56.553008 278.43912,56.434844 278.81152,56.19851 C 279.18391,55.955027 279.4274,55.632761 279.54199,55.231713 C 279.65657,54.830679 279.73893,54.128857 279.78906,53.126244 L 279.89648,51.095971 L 282.81836,51.095971 L 282.66797,53.910424 C 282.62499,54.648062 282.55338,55.220978 282.45312,55.629174 C 282.36002,56.030222 282.1595,56.438425 281.85156,56.853783 C 281.55077,57.261991 281.0817,57.612903 280.44434,57.906517 C 279.81412,58.19298 278.98697,58.379178 277.96289,58.465111 M 267.20996,60.248314 C 268.0192,59.940374 268.54557,59.510687 268.78906,58.959252 C 269.03254,58.407824 269.16503,57.584257 269.18652,56.488549 L 269.31543,51.095971 L 272.3125,51.095971 L 272.15137,55.188744 C 272.10839,56.434844 272.04035,57.380155 271.94727,58.024682 C 271.86132,58.662055 271.65722,59.295844 271.33496,59.926049 C 271.01985,60.556259 270.52571,61.125594 269.85254,61.634057 C 269.18652,62.14252 268.16601,62.618757 266.79102,63.062767 C 265.42317,63.513938 263.81543,63.889915 261.96777,64.190697 L 261.5918,61.719994 C 262.73763,61.54812 263.72949,61.358342 264.56738,61.150658 L 262.59082,51.095971 L 265.6416,51.095971 L 267.20996,60.248314 M 260.1416,62.493432 L 257.13379,62.493432 L 257.13379,56.88601 C 257.13378,55.668569 256.82942,54.798452 256.2207,54.275658 C 255.61914,53.75288 254.6595,53.491487 253.3418,53.491478 C 252.66862,53.491487 251.77702,53.559521 250.66699,53.69558 L 250.44141,51.321557 C 251.47265,51.08524 252.66146,50.967076 254.00781,50.967064 C 256.04882,50.967076 257.58137,51.393182 258.60547,52.245385 C 259.62955,53.097608 260.14159,54.461864 260.1416,56.338158 L 260.1416,62.493432 M 242.5459,62.493432 L 239.53809,62.493432 L 239.53809,57.122338 C 239.53808,55.72586 239.19075,54.762645 238.49609,54.232689 C 237.80859,53.695589 236.77018,53.427034 235.38086,53.427025 C 234.34244,53.427034 233.21093,53.516552 231.98633,53.69558 L 231.77148,51.278588 C 232.9388,51.070917 234.31738,50.967076 235.90723,50.967064 C 237.63313,50.967076 238.96874,51.217727 239.91406,51.719017 C 240.85936,52.213168 241.53254,52.836215 241.93359,53.588158 C 242.34178,54.332958 242.54589,55.364207 242.5459,56.681908 L 242.5459,62.493432 M 234.91895,56.574486 L 234.91895,62.493432 L 231.90039,62.493432 L 231.90039,56.574486 L 234.91895,56.574486 M 218.80566,51.450463 C 220.15918,51.08524 221.53776,50.902623 222.94141,50.902611 C 224.93945,50.902623 226.52929,51.428989 227.71094,52.481713 C 228.89973,53.527295 229.49413,54.88439 229.49414,56.553002 C 229.49413,58.493761 228.8496,59.997666 227.56055,61.064721 C 226.27148,62.131778 224.58495,62.665306 222.50098,62.665307 C 221.19043,62.665306 219.86198,62.425398 218.51562,61.94558 L 219.10645,59.915307 C 220.19498,60.330673 221.22981,60.538355 222.21094,60.538353 C 223.46419,60.538355 224.46679,60.21609 225.21875,59.571557 C 225.97069,58.919867 226.34667,57.956652 226.34668,56.681908 C 226.34667,55.514597 226.04231,54.597932 225.43359,53.931908 C 224.82486,53.265902 223.96907,52.932894 222.86621,52.932885 C 222.46516,52.932894 222.05696,52.972282 221.6416,53.051049 L 221.6416,54.372338 C 221.6416,55.417918 222.06054,55.940704 222.89844,55.940697 C 223.01302,55.940704 223.14192,55.933542 223.28516,55.919213 L 223.79004,57.788353 C 223.28157,58.003202 222.72656,58.110623 222.125,58.110619 C 221.5664,58.110623 221.04004,58.010363 220.5459,57.809838 C 220.05892,57.609322 219.64713,57.25483 219.31055,56.746361 C 218.97396,56.237904 218.80566,55.360626 218.80566,54.114525 L 218.80566,51.450463 M 216.09863,62.493432 L 213.09082,62.493432 L 213.09082,56.88601 C 213.09081,55.668569 212.78645,54.798452 212.17773,54.275658 C 211.57617,53.75288 210.61653,53.491487 209.29883,53.491478 C 208.62565,53.491487 207.73405,53.559521 206.62402,53.69558 L 206.39844,51.321557 C 207.42969,51.08524 208.61849,50.967076 209.96484,50.967064 C 212.00585,50.967076 213.5384,51.393182 214.5625,52.245385 C 215.58658,53.097608 216.09862,54.461864 216.09863,56.338158 L 216.09863,62.493432 M 204.5293,62.493432 L 201.52148,62.493432 L 201.52148,56.510033 C 201.52148,55.514597 201.30305,54.759064 200.86621,54.243432 C 200.42935,53.727815 199.62727,53.470003 198.45996,53.469994 C 197.83691,53.470003 197.3177,53.509391 196.90234,53.588158 L 196.90234,62.493432 L 193.88379,62.493432 L 193.88379,51.321557 C 195.26595,51.08524 196.66601,50.967076 198.08398,50.967064 C 199.89583,50.967076 201.2386,51.189081 202.1123,51.63308 C 202.99315,52.077101 203.6162,52.667921 203.98145,53.405541 C 204.34667,54.136018 204.52928,55.113556 204.5293,56.338158 L 204.5293,62.493432 M 190.97266,51.095971 L 190.97266,57.455346 L 187.86816,57.455346 L 187.86816,51.095971 L 190.97266,51.095971 M 185.06445,62.493432 L 174.41895,62.493432 L 174.41895,51.321557 C 175.8011,51.08524 177.20117,50.967076 178.61914,50.967064 C 180.43098,50.967076 181.77375,51.189081 182.64746,51.63308 C 183.52831,52.077101 184.15136,52.667921 184.5166,53.405541 C 184.88182,54.136018 185.06444,55.113556 185.06445,56.338158 L 185.06445,62.493432 M 182.05664,59.893822 L 182.05664,56.510033 C 182.05663,55.514597 181.83821,54.759064 181.40137,54.243432 C 180.96451,53.727815 180.16243,53.470003 178.99512,53.469994 C 178.37206,53.470003 177.85286,53.509391 177.4375,53.588158 L 177.4375,59.893822 L 182.05664,59.893822"
       id="flowRoot7180" />
    <path
       transform="translate(-7.489097,192.02548)"
       style="font-size:22px;font-style:normal;font-variant:normal;font-weight:bold;font-stretch:normal;text-align:start;line-height:125%;writing-mode:lr-tb;text-anchor:start;font-family:Arial"
       d="M 287.79199,62.493432 L 284.78418,62.493432 L 284.78418,57.122338 C 284.78417,55.72586 284.43684,54.762645 283.74219,54.232689 C 283.05468,53.695589 282.01627,53.427034 280.62695,53.427025 C 279.58854,53.427034 278.45703,53.516552 277.23242,53.69558 L 277.01758,51.278588 C 278.18489,51.070917 279.56347,50.967076 281.15332,50.967064 C 282.87922,50.967076 284.21484,51.217727 285.16016,51.719017 C 286.10546,52.213168 286.77863,52.836215 287.17969,53.588158 C 287.58788,54.332958 287.79198,55.364207 287.79199,56.681908 L 287.79199,62.493432 M 280.16504,56.574486 L 280.16504,62.493432 L 277.14648,62.493432 L 277.14648,56.574486 L 280.16504,56.574486 M 274.27832,62.493432 L 271.27051,62.493432 L 271.27051,56.88601 C 271.2705,55.668569 270.96614,54.798452 270.35742,54.275658 C 269.75585,53.75288 268.79622,53.491487 267.47852,53.491478 C 266.80534,53.491487 265.91374,53.559521 264.80371,53.69558 L 264.57812,51.321557 C 265.60937,51.08524 266.79817,50.967076 268.14453,50.967064 C 270.18554,50.967076 271.71809,51.393182 272.74219,52.245385 C 273.76627,53.097608 274.27831,54.461864 274.27832,56.338158 L 274.27832,62.493432 M 262.6875,51.095971 L 262.6875,62.493432 L 259.58301,62.493432 L 259.58301,51.095971 L 262.6875,51.095971 M 255.57617,59.893822 L 257.63867,59.893822 L 257.63867,62.493432 L 246.29492,62.493432 L 246.29492,59.893822 L 252.55762,59.893822 L 252.55762,56.88601 C 252.55761,55.639923 252.28906,54.759064 251.75195,54.243432 C 251.21484,53.727815 250.29101,53.470003 248.98047,53.469994 C 248.20703,53.470003 247.34049,53.545198 246.38086,53.69558 L 246.15527,51.321557 C 247.27246,51.08524 248.38965,50.967076 249.50684,50.967064 C 251.59081,50.967076 253.12336,51.396763 254.10449,52.256127 C 255.0856,53.10835 255.57616,54.469025 255.57617,56.338158 L 255.57617,59.893822 M 239.2373,60.248314 C 240.04654,59.940374 240.57291,59.510687 240.81641,58.959252 C 241.05989,58.407824 241.19238,57.584257 241.21387,56.488549 L 241.34277,51.095971 L 244.33984,51.095971 L 244.17871,55.188744 C 244.13573,56.434844 244.0677,57.380155 243.97461,58.024682 C 243.88866,58.662055 243.68456,59.295844 243.3623,59.926049 C 243.04719,60.556259 242.55305,61.125594 241.87988,61.634057 C 241.21386,62.14252 240.19335,62.618757 238.81836,63.062767 C 237.45052,63.513938 235.84277,63.889915 233.99512,64.190697 L 233.61914,61.719994 C 234.76497,61.54812 235.75683,61.358342 236.59473,61.150658 L 234.61816,51.095971 L 237.66895,51.095971 L 239.2373,60.248314 M 226.0459,62.493432 L 223.03809,62.493432 L 223.03809,57.122338 C 223.03808,55.72586 222.69075,54.762645 221.99609,54.232689 C 221.30859,53.695589 220.27018,53.427034 218.88086,53.427025 C 217.84244,53.427034 216.71093,53.516552 215.48633,53.69558 L 215.27148,51.278588 C 216.4388,51.070917 217.81738,50.967076 219.40723,50.967064 C 221.13313,50.967076 222.46874,51.217727 223.41406,51.719017 C 224.35936,52.213168 225.03254,52.836215 225.43359,53.588158 C 225.84178,54.332958 226.04589,55.364207 226.0459,56.681908 L 226.0459,62.493432 M 218.41895,56.574486 L 218.41895,62.493432 L 215.40039,62.493432 L 215.40039,56.574486 L 218.41895,56.574486 M 212.51074,62.493432 L 206.33398,62.493432 L 206.33398,59.893822 L 209.50293,59.893822 L 209.50293,55.629174 C 209.50293,54.769806 209.30599,54.189729 208.91211,53.888939 C 208.51823,53.581006 207.97396,53.427034 207.2793,53.427025 C 206.86393,53.427034 206.57031,53.448519 206.39844,53.491478 L 206.17285,51.160424 C 206.73144,51.031529 207.44401,50.967076 208.31055,50.967064 C 209.75716,50.967076 210.81705,51.317987 211.49023,52.019799 C 212.17057,52.721631 212.51074,53.842399 212.51074,55.382103 L 212.51074,62.493432 M 203.90625,51.095971 L 203.90625,62.493432 L 200.80176,62.493432 L 200.80176,51.095971 L 203.90625,51.095971 M 198.27734,51.095971 L 198.16992,52.857689 L 198.09473,53.856713 C 198.07323,54.178987 198.01594,54.504833 197.92285,54.834252 C 197.82974,55.163686 197.67935,55.493113 197.47168,55.822533 C 197.27115,56.144805 197.01334,56.445586 196.69824,56.724877 C 196.38313,57.004179 196.00715,57.261991 195.57031,57.498314 L 197.90137,61.150658 L 197.90137,62.493432 L 188.85645,62.493432 L 188.85645,59.893822 L 193.9375,59.893822 L 188.20117,51.095971 L 191.45605,51.095971 L 194.31348,55.521752 C 194.66438,55.421498 194.89355,55.242462 195.00098,54.984642 C 195.11555,54.719676 195.20149,54.025016 195.25879,52.900658 L 195.35547,51.095971 L 198.27734,51.095971 M 186.75098,62.493432 L 183.74316,62.493432 L 183.74316,56.88601 C 183.74316,55.668569 183.4388,54.798452 182.83008,54.275658 C 182.22851,53.75288 181.26888,53.491487 179.95117,53.491478 C 179.27799,53.491487 178.38639,53.559521 177.27637,53.69558 L 177.05078,51.321557 C 178.08203,51.08524 179.27083,50.967076 180.61719,50.967064 C 182.6582,50.967076 184.19075,51.393182 185.21484,52.245385 C 186.23892,53.097608 186.75097,54.461864 186.75098,56.338158 L 186.75098,62.493432 M 175.16016,51.095971 L 175.16016,57.455346 L 172.05566,57.455346 L 172.05566,51.095971 L 175.16016,51.095971"
       id="flowRoot7188" />
    <path
       transform="translate(187.5109,77.858806)"
       style="font-size:22px;font-style:normal;font-variant:normal;font-weight:bold;font-stretch:normal;text-align:start;line-height:125%;writing-mode:lr-tb;text-anchor:start;font-family:Arial"
       d="M 287.79199,62.493432 L 284.78418,62.493432 L 284.78418,57.122338 C 284.78417,55.72586 284.43684,54.762645 283.74219,54.232689 C 283.05468,53.695589 282.01627,53.427034 280.62695,53.427025 C 279.58854,53.427034 278.45703,53.516552 277.23242,53.69558 L 277.01758,51.278588 C 278.18489,51.070917 279.56347,50.967076 281.15332,50.967064 C 282.87922,50.967076 284.21484,51.217727 285.16016,51.719017 C 286.10546,52.213168 286.77863,52.836215 287.17969,53.588158 C 287.58788,54.332958 287.79198,55.364207 287.79199,56.681908 L 287.79199,62.493432 M 280.16504,56.574486 L 280.16504,62.493432 L 277.14648,62.493432 L 277.14648,56.574486 L 280.16504,56.574486 M 274.27832,62.493432 L 271.27051,62.493432 L 271.27051,56.88601 C 271.2705,55.668569 270.96614,54.798452 270.35742,54.275658 C 269.75585,53.75288 268.79622,53.491487 267.47852,53.491478 C 266.80534,53.491487 265.91374,53.559521 264.80371,53.69558 L 264.57812,51.321557 C 265.60937,51.08524 266.79817,50.967076 268.14453,50.967064 C 270.18554,50.967076 271.71809,51.393182 272.74219,52.245385 C 273.76627,53.097608 274.27831,54.461864 274.27832,56.338158 L 274.27832,62.493432 M 262.6875,51.095971 L 262.6875,62.493432 L 259.58301,62.493432 L 259.58301,51.095971 L 262.6875,51.095971 M 255.57617,59.893822 L 257.63867,59.893822 L 257.63867,62.493432 L 246.29492,62.493432 L 246.29492,59.893822 L 252.55762,59.893822 L 252.55762,56.88601 C 252.55761,55.639923 252.28906,54.759064 251.75195,54.243432 C 251.21484,53.727815 250.29101,53.470003 248.98047,53.469994 C 248.20703,53.470003 247.34049,53.545198 246.38086,53.69558 L 246.15527,51.321557 C 247.27246,51.08524 248.38965,50.967076 249.50684,50.967064 C 251.59081,50.967076 253.12336,51.396763 254.10449,52.256127 C 255.0856,53.10835 255.57616,54.469025 255.57617,56.338158 L 255.57617,59.893822 M 239.2373,60.248314 C 240.04654,59.940374 240.57291,59.510687 240.81641,58.959252 C 241.05989,58.407824 241.19238,57.584257 241.21387,56.488549 L 241.34277,51.095971 L 244.33984,51.095971 L 244.17871,55.188744 C 244.13573,56.434844 244.0677,57.380155 243.97461,58.024682 C 243.88866,58.662055 243.68456,59.295844 243.3623,59.926049 C 243.04719,60.556259 242.55305,61.125594 241.87988,61.634057 C 241.21386,62.14252 240.19335,62.618757 238.81836,63.062767 C 237.45052,63.513938 235.84277,63.889915 233.99512,64.190697 L 233.61914,61.719994 C 234.76497,61.54812 235.75683,61.358342 236.59473,61.150658 L 234.61816,51.095971 L 237.66895,51.095971 L 239.2373,60.248314 M 226.0459,62.493432 L 223.03809,62.493432 L 223.03809,57.122338 C 223.03808,55.72586 222.69075,54.762645 221.99609,54.232689 C 221.30859,53.695589 220.27018,53.427034 218.88086,53.427025 C 217.84244,53.427034 216.71093,53.516552 215.48633,53.69558 L 215.27148,51.278588 C 216.4388,51.070917 217.81738,50.967076 219.40723,50.967064 C 221.13313,50.967076 222.46874,51.217727 223.41406,51.719017 C 224.35936,52.213168 225.03254,52.836215 225.43359,53.588158 C 225.84178,54.332958 226.04589,55.364207 226.0459,56.681908 L 226.0459,62.493432 M 218.41895,56.574486 L 218.41895,62.493432 L 215.40039,62.493432 L 215.40039,56.574486 L 218.41895,56.574486 M 203.99219,53.534447 C 205.12369,51.822869 206.49511,50.967076 208.10645,50.967064 C 209.45279,50.967076 210.52343,51.504185 211.31836,52.578392 C 212.11327,53.645459 212.51073,55.374949 212.51074,57.766869 L 212.51074,62.493432 L 206.69922,62.493432 L 206.69922,59.893822 L 209.49219,59.893822 L 209.49219,57.605736 C 209.49218,56.108998 209.36685,55.063426 209.11621,54.469017 C 208.86555,53.867464 208.4287,53.566683 207.80566,53.566674 C 207.1468,53.566683 206.60253,53.924755 206.17285,54.640892 C 205.74316,55.349884 205.34928,56.685495 204.99121,58.647728 L 204.30371,62.493432 L 201.11328,62.493432 L 201.63965,60.011986 C 201.95475,58.543891 202.24121,57.466093 202.49902,56.778588 L 200.58691,51.095971 L 203.31543,51.095971 L 203.99219,53.534447 M 198.53516,51.095971 L 198.53516,62.493432 L 195.43066,62.493432 L 195.43066,51.095971 L 198.53516,51.095971 M 181.34766,56.88601 C 181.34766,55.074168 181.88834,53.613232 182.96973,52.503197 C 184.0511,51.393182 185.46907,50.83817 187.22363,50.838158 C 188.40527,50.83817 189.43293,51.092401 190.30664,51.600853 C 191.18033,52.102166 191.86783,52.793246 192.36914,53.674096 C 192.87043,54.554963 193.12108,55.57905 193.12109,56.746361 C 193.12108,58.436469 192.57681,59.861598 191.48828,61.021752 C 190.39973,62.181908 188.98534,62.761986 187.24512,62.761986 C 185.50488,62.761986 184.08691,62.221296 182.99121,61.139916 C 181.89551,60.051377 181.34766,58.633409 181.34766,56.88601 M 184.45215,56.800072 C 184.45214,57.852811 184.70638,58.697862 185.21484,59.335228 C 185.7233,59.972601 186.40006,60.291285 187.24512,60.291283 C 188.09016,60.291285 188.76334,59.972601 189.26465,59.335228 C 189.76594,58.697862 190.01659,57.84565 190.0166,56.778588 C 190.01659,55.718699 189.76236,54.873647 189.25391,54.243432 C 188.7526,53.613232 188.083,53.298128 187.24512,53.298119 C 186.32128,53.298128 185.62304,53.638297 185.15039,54.318627 C 184.68489,54.998973 184.45214,55.82612 184.45215,56.800072 M 179.36035,51.095971 L 179.36035,54.028588 C 179.36034,55.102814 179.31379,55.890574 179.2207,56.391869 C 179.12759,56.893177 178.93065,57.358671 178.62988,57.788353 L 178.14648,58.486596 C 177.84569,58.93061 177.64159,59.292263 177.53418,59.571557 C 177.42675,59.843695 177.37304,60.187444 177.37305,60.602807 L 177.37305,62.493432 L 174.36523,62.493432 L 174.36523,60.452416 C 174.36523,59.865179 174.44042,59.367458 174.59082,58.959252 C 174.74837,58.551053 175.05273,58.035428 175.50391,57.412377 L 175.79395,57.014916 C 176.15917,56.506458 176.34179,55.876251 176.3418,55.124291 L 176.3418,53.69558 L 170.27246,53.69558 L 170.27246,46.745385 L 173.28027,46.745385 L 173.28027,51.095971 L 179.36035,51.095971 M 159.69141,53.534447 C 160.82291,51.822869 162.19433,50.967076 163.80566,50.967064 C 165.15201,50.967076 166.22265,51.504185 167.01758,52.578392 C 167.81249,53.645459 168.20995,55.374949 168.20996,57.766869 L 168.20996,62.493432 L 162.39844,62.493432 L 162.39844,59.893822 L 165.19141,59.893822 L 165.19141,57.605736 C 165.1914,56.108998 165.06607,55.063426 164.81543,54.469017 C 164.56477,53.867464 164.12792,53.566683 163.50488,53.566674 C 162.84602,53.566683 162.30175,53.924755 161.87207,54.640892 C 161.44238,55.349884 161.0485,56.685495 160.69043,58.647728 L 160.00293,62.493432 L 156.8125,62.493432 L 157.33887,60.011986 C 157.65397,58.543891 157.94043,57.466093 158.19824,56.778588 L 156.28613,51.095971 L 159.01465,51.095971 L 159.69141,53.534447 M 154.23438,51.095971 L 154.23438,57.455346 L 151.12988,57.455346 L 151.12988,51.095971 L 154.23438,51.095971"
       id="flowRoot7196" />
    <path
       transform="translate(218.01091,206.19214)"
       style="font-size:22px;font-style:normal;font-variant:normal;font-weight:bold;font-stretch:normal;text-align:start;line-height:125%;writing-mode:lr-tb;text-anchor:start;font-family:Arial"
       d="M 287.79199,62.493432 L 284.78418,62.493432 L 284.78418,57.122338 C 284.78417,55.72586 284.43684,54.762645 283.74219,54.232689 C 283.05468,53.695589 282.01627,53.427034 280.62695,53.427025 C 279.58854,53.427034 278.45703,53.516552 277.23242,53.69558 L 277.01758,51.278588 C 278.18489,51.070917 279.56347,50.967076 281.15332,50.967064 C 282.87922,50.967076 284.21484,51.217727 285.16016,51.719017 C 286.10546,52.213168 286.77863,52.836215 287.17969,53.588158 C 287.58788,54.332958 287.79198,55.364207 287.79199,56.681908 L 287.79199,62.493432 M 280.16504,56.574486 L 280.16504,62.493432 L 277.14648,62.493432 L 277.14648,56.574486 L 280.16504,56.574486 M 274.27832,62.493432 L 271.27051,62.493432 L 271.27051,56.88601 C 271.2705,55.668569 270.96614,54.798452 270.35742,54.275658 C 269.75585,53.75288 268.79622,53.491487 267.47852,53.491478 C 266.80534,53.491487 265.91374,53.559521 264.80371,53.69558 L 264.57812,51.321557 C 265.60937,51.08524 266.79817,50.967076 268.14453,50.967064 C 270.18554,50.967076 271.71809,51.393182 272.74219,52.245385 C 273.76627,53.097608 274.27831,54.461864 274.27832,56.338158 L 274.27832,62.493432 M 256.68262,62.493432 L 253.6748,62.493432 L 253.6748,57.122338 C 253.6748,55.72586 253.32747,54.762645 252.63281,54.232689 C 251.94531,53.695589 250.90689,53.427034 249.51758,53.427025 C 248.47916,53.427034 247.34765,53.516552 246.12305,53.69558 L 245.9082,51.278588 C 247.07552,51.070917 248.4541,50.967076 250.04395,50.967064 C 251.76985,50.967076 253.10546,51.217727 254.05078,51.719017 C 254.99608,52.213168 255.66926,52.836215 256.07031,53.588158 C 256.4785,54.332958 256.68261,55.364207 256.68262,56.681908 L 256.68262,62.493432 M 249.05566,56.574486 L 249.05566,62.493432 L 246.03711,62.493432 L 246.03711,56.574486 L 249.05566,56.574486 M 241.95508,59.893822 L 244.01758,59.893822 L 244.01758,62.493432 L 232.67383,62.493432 L 232.67383,59.893822 L 238.93652,59.893822 L 238.93652,56.88601 C 238.93652,55.639923 238.66796,54.759064 238.13086,54.243432 C 237.59374,53.727815 236.66992,53.470003 235.35938,53.469994 C 234.58593,53.470003 233.7194,53.545198 232.75977,53.69558 L 232.53418,51.321557 C 233.65137,51.08524 234.76855,50.967076 235.88574,50.967064 C 237.96972,50.967076 239.50227,51.396763 240.4834,52.256127 C 241.46451,53.10835 241.95507,54.469025 241.95508,56.338158 L 241.95508,59.893822 M 230.375,51.095971 L 230.375,57.455346 L 227.27051,57.455346 L 227.27051,51.095971 L 230.375,51.095971 M 211.94141,60.22683 C 212.37825,60.370061 212.76855,60.441676 213.1123,60.441674 C 213.54199,60.441676 213.82487,60.337835 213.96094,60.13015 C 214.097,59.915309 214.16504,59.514268 214.16504,58.927025 L 214.16504,53.469994 C 213.66373,53.470003 212.90104,53.530875 211.87695,53.652611 L 211.64062,51.321557 C 213.48828,51.08524 215.40755,50.967076 217.39844,50.967064 C 219.08137,50.967076 220.4134,51.113886 221.39453,51.407494 C 222.37564,51.701125 223.11327,52.238233 223.60742,53.018822 C 224.10871,53.79943 224.35936,54.905874 224.35938,56.338158 L 224.35938,62.493432 L 221.34082,62.493432 L 221.34082,56.88601 C 221.34081,55.439402 221.1009,54.49051 220.62109,54.03933 C 220.14127,53.588167 218.99543,53.362581 217.18359,53.362572 L 217.18359,59.066674 C 217.18359,60.033473 217.10839,60.728134 216.95801,61.150658 C 216.81477,61.566024 216.51399,61.909773 216.05566,62.181908 C 215.59733,62.446882 214.94563,62.579369 214.10059,62.579369 C 213.18392,62.579369 212.31022,62.446882 211.47949,62.181908 L 211.94141,60.22683"
       id="flowRoot7204" />
    <path
       transform="translate(103.34423,290.19213)"
       style="font-size:22px;font-style:normal;font-variant:normal;font-weight:bold;font-stretch:normal;text-align:start;line-height:125%;writing-mode:lr-tb;text-anchor:start;font-family:Arial"
       d="M 287.79199,62.493432 L 284.78418,62.493432 L 284.78418,57.122338 C 284.78417,55.72586 284.43684,54.762645 283.74219,54.232689 C 283.05468,53.695589 282.01627,53.427034 280.62695,53.427025 C 279.58854,53.427034 278.45703,53.516552 277.23242,53.69558 L 277.01758,51.278588 C 278.18489,51.070917 279.56347,50.967076 281.15332,50.967064 C 282.87922,50.967076 284.21484,51.217727 285.16016,51.719017 C 286.10546,52.213168 286.77863,52.836215 287.17969,53.588158 C 287.58788,54.332958 287.79198,55.364207 287.79199,56.681908 L 287.79199,62.493432 M 280.16504,56.574486 L 280.16504,62.493432 L 277.14648,62.493432 L 277.14648,56.574486 L 280.16504,56.574486 M 274.27832,62.493432 L 271.27051,62.493432 L 271.27051,56.88601 C 271.2705,55.668569 270.96614,54.798452 270.35742,54.275658 C 269.75585,53.75288 268.79622,53.491487 267.47852,53.491478 C 266.80534,53.491487 265.91374,53.559521 264.80371,53.69558 L 264.57812,51.321557 C 265.60937,51.08524 266.79817,50.967076 268.14453,50.967064 C 270.18554,50.967076 271.71809,51.393182 272.74219,52.245385 C 273.76627,53.097608 274.27831,54.461864 274.27832,56.338158 L 274.27832,62.493432 M 262.6875,51.095971 L 262.6875,62.493432 L 259.58301,62.493432 L 259.58301,51.095971 L 262.6875,51.095971 M 255.57617,59.893822 L 257.63867,59.893822 L 257.63867,62.493432 L 246.29492,62.493432 L 246.29492,59.893822 L 252.55762,59.893822 L 252.55762,56.88601 C 252.55761,55.639923 252.28906,54.759064 251.75195,54.243432 C 251.21484,53.727815 250.29101,53.470003 248.98047,53.469994 C 248.20703,53.470003 247.34049,53.545198 246.38086,53.69558 L 246.15527,51.321557 C 247.27246,51.08524 248.38965,50.967076 249.50684,50.967064 C 251.59081,50.967076 253.12336,51.396763 254.10449,52.256127 C 255.0856,53.10835 255.57616,54.469025 255.57617,56.338158 L 255.57617,59.893822 M 239.2373,60.248314 C 240.04654,59.940374 240.57291,59.510687 240.81641,58.959252 C 241.05989,58.407824 241.19238,57.584257 241.21387,56.488549 L 241.34277,51.095971 L 244.33984,51.095971 L 244.17871,55.188744 C 244.13573,56.434844 244.0677,57.380155 243.97461,58.024682 C 243.88866,58.662055 243.68456,59.295844 243.3623,59.926049 C 243.04719,60.556259 242.55305,61.125594 241.87988,61.634057 C 241.21386,62.14252 240.19335,62.618757 238.81836,63.062767 C 237.45052,63.513938 235.84277,63.889915 233.99512,64.190697 L 233.61914,61.719994 C 234.76497,61.54812 235.75683,61.358342 236.59473,61.150658 L 234.61816,51.095971 L 237.66895,51.095971 L 239.2373,60.248314 M 287.79199,89.993432 L 284.78418,89.993432 L 284.78418,84.622338 C 284.78417,83.22586 284.43684,82.262645 283.74219,81.732689 C 283.05468,81.195589 282.01627,80.927034 280.62695,80.927025 C 279.58854,80.927034 278.45703,81.016552 277.23242,81.19558 L 277.01758,78.778588 C 278.18489,78.570917 279.56347,78.467076 281.15332,78.467064 C 282.87922,78.467076 284.21484,78.717727 285.16016,79.219017 C 286.10546,79.713168 286.77863,80.336215 287.17969,81.088158 C 287.58788,81.832958 287.79198,82.864207 287.79199,84.181908 L 287.79199,89.993432 M 280.16504,84.074486 L 280.16504,89.993432 L 277.14648,89.993432 L 277.14648,84.074486 L 280.16504,84.074486 M 274.16016,78.595971 L 274.16016,84.955346 L 271.05566,84.955346 L 271.05566,78.595971 L 274.16016,78.595971 M 268.24121,89.993432 L 265.2334,89.993432 L 265.2334,84.622338 C 265.23339,83.22586 264.88606,82.262645 264.19141,81.732689 C 263.5039,81.195589 262.46549,80.927034 261.07617,80.927025 C 260.03776,80.927034 258.90625,81.016552 257.68164,81.19558 L 257.4668,78.778588 C 258.63411,78.570917 260.01269,78.467076 261.60254,78.467064 C 263.32844,78.467076 264.66405,78.717727 265.60938,79.219017 C 266.55468,79.713168 267.22785,80.336215 267.62891,81.088158 C 268.0371,81.832958 268.2412,82.864207 268.24121,84.181908 L 268.24121,89.993432 M 260.61426,84.074486 L 260.61426,89.993432 L 257.5957,89.993432 L 257.5957,84.074486 L 260.61426,84.074486 M 254.60938,78.595971 L 254.60938,89.993432 L 251.50488,89.993432 L 251.50488,78.595971 L 254.60938,78.595971 M 249.49609,81.19558 L 247.72363,81.19558 L 247.72363,89.993432 L 244.70508,89.993432 L 244.70508,81.19558 L 238.47461,81.19558 L 238.47461,78.595971 L 249.49609,78.595971 L 249.49609,81.19558 M 236.47656,78.595971 L 236.47656,84.955346 L 233.37207,84.955346 L 233.37207,78.595971 L 236.47656,78.595971"
       id="flowRoot7212" />
    <path
       transform="translate(-20.822428,322.02548)"
       style="font-size:22px;font-style:normal;font-variant:normal;font-weight:bold;font-stretch:normal;text-align:start;line-height:125%;writing-mode:lr-tb;text-anchor:start;font-family:Arial"
       d="M 287.79199,62.493432 L 284.78418,62.493432 L 284.78418,57.122338 C 284.78417,55.72586 284.43684,54.762645 283.74219,54.232689 C 283.05468,53.695589 282.01627,53.427034 280.62695,53.427025 C 279.58854,53.427034 278.45703,53.516552 277.23242,53.69558 L 277.01758,51.278588 C 278.18489,51.070917 279.56347,50.967076 281.15332,50.967064 C 282.87922,50.967076 284.21484,51.217727 285.16016,51.719017 C 286.10546,52.213168 286.77863,52.836215 287.17969,53.588158 C 287.58788,54.332958 287.79198,55.364207 287.79199,56.681908 L 287.79199,62.493432 M 280.16504,56.574486 L 280.16504,62.493432 L 277.14648,62.493432 L 277.14648,56.574486 L 280.16504,56.574486 M 274.27832,62.493432 L 271.27051,62.493432 L 271.27051,56.88601 C 271.2705,55.668569 270.96614,54.798452 270.35742,54.275658 C 269.75585,53.75288 268.79622,53.491487 267.47852,53.491478 C 266.80534,53.491487 265.91374,53.559521 264.80371,53.69558 L 264.57812,51.321557 C 265.60937,51.08524 266.79817,50.967076 268.14453,50.967064 C 270.18554,50.967076 271.71809,51.393182 272.74219,52.245385 C 273.76627,53.097608 274.27831,54.461864 274.27832,56.338158 L 274.27832,62.493432 M 262.6875,51.095971 L 262.6875,62.493432 L 259.58301,62.493432 L 259.58301,51.095971 L 262.6875,51.095971 M 255.57617,59.893822 L 257.63867,59.893822 L 257.63867,62.493432 L 246.29492,62.493432 L 246.29492,59.893822 L 252.55762,59.893822 L 252.55762,56.88601 C 252.55761,55.639923 252.28906,54.759064 251.75195,54.243432 C 251.21484,53.727815 250.29101,53.470003 248.98047,53.469994 C 248.20703,53.470003 247.34049,53.545198 246.38086,53.69558 L 246.15527,51.321557 C 247.27246,51.08524 248.38965,50.967076 249.50684,50.967064 C 251.59081,50.967076 253.12336,51.396763 254.10449,52.256127 C 255.0856,53.10835 255.57616,54.469025 255.57617,56.338158 L 255.57617,59.893822 M 239.2373,60.248314 C 240.04654,59.940374 240.57291,59.510687 240.81641,58.959252 C 241.05989,58.407824 241.19238,57.584257 241.21387,56.488549 L 241.34277,51.095971 L 244.33984,51.095971 L 244.17871,55.188744 C 244.13573,56.434844 244.0677,57.380155 243.97461,58.024682 C 243.88866,58.662055 243.68456,59.295844 243.3623,59.926049 C 243.04719,60.556259 242.55305,61.125594 241.87988,61.634057 C 241.21386,62.14252 240.19335,62.618757 238.81836,63.062767 C 237.45052,63.513938 235.84277,63.889915 233.99512,64.190697 L 233.61914,61.719994 C 234.76497,61.54812 235.75683,61.358342 236.59473,61.150658 L 234.61816,51.095971 L 237.66895,51.095971 L 239.2373,60.248314 M 287.79199,89.993432 L 284.78418,89.993432 L 284.78418,84.622338 C 284.78417,83.22586 284.43684,82.262645 283.74219,81.732689 C 283.05468,81.195589 282.01627,80.927034 280.62695,80.927025 C 279.58854,80.927034 278.45703,81.016552 277.23242,81.19558 L 277.01758,78.778588 C 278.18489,78.570917 279.56347,78.467076 281.15332,78.467064 C 282.87922,78.467076 284.21484,78.717727 285.16016,79.219017 C 286.10546,79.713168 286.77863,80.336215 287.17969,81.088158 C 287.58788,81.832958 287.79198,82.864207 287.79199,84.181908 L 287.79199,89.993432 M 280.16504,84.074486 L 280.16504,89.993432 L 277.14648,89.993432 L 277.14648,84.074486 L 280.16504,84.074486 M 271.92578,85.148705 L 275.36328,89.993432 L 271.81836,89.993432 L 267.83301,84.364525 C 267.3317,84.858671 267.0166,85.979438 266.8877,87.72683 L 266.71582,89.993432 L 263.79395,89.993432 L 264.00879,87.576439 C 264.15202,85.936469 264.43131,84.758411 264.84668,84.04226 C 265.26204,83.32612 265.78841,82.771108 266.42578,82.377221 L 263.77246,78.595971 L 267.30664,78.595971 L 270.60449,83.25808 C 271.16308,82.849884 271.50325,81.918895 271.625,80.465111 L 271.77539,78.595971 L 274.56836,78.595971 L 274.43945,79.981713 C 274.28905,81.593049 274.00975,82.742462 273.60156,83.429955 C 273.19335,84.110299 272.63476,84.683215 271.92578,85.148705 M 261.47363,89.993432 L 258.46582,89.993432 L 258.46582,84.38601 C 258.46581,83.168569 258.16145,82.298452 257.55273,81.775658 C 256.95117,81.25288 255.99153,80.991487 254.67383,80.991478 C 254.00065,80.991487 253.10905,81.059521 251.99902,81.19558 L 251.77344,78.821557 C 252.80469,78.58524 253.99349,78.467076 255.33984,78.467064 C 257.38085,78.467076 258.9134,78.893182 259.9375,79.745385 C 260.96158,80.597608 261.47362,81.961864 261.47363,83.838158 L 261.47363,89.993432 M 241.46094,81.034447 C 242.59244,79.322869 243.96386,78.467076 245.5752,78.467064 C 246.92154,78.467076 247.99218,79.004185 248.78711,80.078392 C 249.58202,81.145459 249.97948,82.874949 249.97949,85.266869 L 249.97949,89.993432 L 244.16797,89.993432 L 244.16797,87.393822 L 246.96094,87.393822 L 246.96094,85.105736 C 246.96093,83.608998 246.8356,82.563426 246.58496,81.969017 C 246.3343,81.367464 245.89745,81.066683 245.27441,81.066674 C 244.61555,81.066683 244.07128,81.424755 243.6416,82.140892 C 243.21191,82.849884 242.81803,84.185495 242.45996,86.147728 L 241.77246,89.993432 L 238.58203,89.993432 L 239.1084,87.511986 C 239.4235,86.043891 239.70996,84.966093 239.96777,84.278588 L 238.05566,78.595971 L 240.78418,78.595971 L 241.46094,81.034447 M 236.10059,89.993432 L 229.92383,89.993432 L 229.92383,87.393822 L 233.09277,87.393822 L 233.09277,83.129174 C 233.09277,82.269806 232.89583,81.689729 232.50195,81.388939 C 232.10807,81.081006 231.5638,80.927034 230.86914,80.927025 C 230.45377,80.927034 230.16016,80.948519 229.98828,80.991478 L 229.7627,78.660424 C 230.32129,78.531529 231.03385,78.467076 231.90039,78.467064 C 233.347,78.467076 234.4069,78.817987 235.08008,79.519799 C 235.76041,80.221631 236.10058,81.342399 236.10059,82.882103 L 236.10059,89.993432 M 227.49609,78.595971 L 227.49609,84.955346 L 224.3916,84.955346 L 224.3916,78.595971 L 227.49609,78.595971"
       id="flowRoot7220" />
  </g>
</svg>
